<svg width="115" height="58" viewBox="0 0 115 58" fill="none" xmlns="http://www.w3.org/2000/svg">
<path d="M12.724 53.944V53.6557C13.5476 53.5939 13.6093 53.5322 13.6093 52.688V48.7555C13.6093 47.9113 13.527 47.8495 12.724 47.7878V47.4995H15.4005V47.7878C14.577 47.8495 14.5152 47.9113 14.5152 48.7555V52.7086C14.5152 53.5528 14.5976 53.5939 15.4005 53.6763V53.9646H12.724V53.944Z" fill="#0E1B34"/>
<path d="M18.7774 53.9439V53.6762C19.3539 53.6144 19.4156 53.5321 19.4156 52.8526V51.2261C19.4156 50.5466 19.148 50.1143 18.5303 50.1143C18.1597 50.1143 17.7686 50.3613 17.4597 50.6084V52.9144C17.4597 53.5939 17.5215 53.635 18.098 53.6968V53.9645H15.895V53.6968C16.5744 53.6144 16.6156 53.5733 16.6156 52.9144V50.8967C16.6156 50.2584 16.5538 50.2172 16.0186 50.1349V49.9084C16.4921 49.826 16.9862 49.7025 17.4391 49.4966V50.2996C17.645 50.1554 17.8509 49.9907 18.1186 49.8466C18.4068 49.6613 18.6539 49.5378 18.9421 49.5378C19.7451 49.5378 20.2392 50.0937 20.2392 51.0614V52.935C20.2392 53.6144 20.3009 53.6556 20.8774 53.7174V53.9851H18.7774V53.9439Z" fill="#0E1B34"/>
<path d="M23.2451 53.9439C23.0598 54.0263 22.9156 54.0674 22.8333 54.0674C22.1951 54.0674 21.8245 53.6968 21.8245 52.8733V50.0319H21.145L21.1039 49.929L21.3921 49.6202H21.8245V48.8995L22.5245 48.2201L22.6686 48.2407V49.5996H23.7804C23.8833 49.7231 23.8421 49.929 23.7186 50.0114H22.648V52.5232C22.648 53.3262 22.9774 53.4498 23.2451 53.4498C23.4715 53.4498 23.698 53.3674 23.8421 53.285L23.9451 53.5321L23.2451 53.9439Z" fill="#0E1B34"/>
<path d="M27.8975 53.0997C27.2593 53.9027 26.5592 54.0674 26.2504 54.0674C25.0151 54.0674 24.2945 53.0791 24.2945 51.9673C24.2945 51.2878 24.5416 50.6908 24.9534 50.2378C25.3651 49.7848 25.9004 49.4966 26.4151 49.4966C27.2593 49.4966 27.9181 50.2378 27.9181 51.0202C27.9181 51.2055 27.8769 51.2879 27.6916 51.329C27.5063 51.3496 26.271 51.4526 25.0975 51.4937C25.1181 52.8115 25.8798 53.3468 26.5798 53.3468C26.971 53.3468 27.3622 53.1821 27.7122 52.8526L27.8975 53.0997ZM26.1681 49.8878C25.7357 49.8878 25.3034 50.279 25.1592 51.1025C25.6945 51.1025 26.2298 51.082 26.7857 51.082C26.971 51.082 27.0122 51.0408 27.0328 50.8967C27.0534 50.3613 26.724 49.8878 26.1681 49.8878Z" fill="#0E1B34"/>
<path d="M30.0385 50.5672C30.3474 50.0319 30.7591 49.4966 31.2327 49.4966C31.5827 49.4966 31.8297 49.7642 31.8297 50.0113C31.8297 50.2172 31.6856 50.4437 31.4797 50.526C31.3562 50.5672 31.2738 50.5672 31.2121 50.5055C31.0474 50.3613 30.9444 50.2996 30.7797 50.2996C30.5327 50.2996 30.2238 50.5878 29.9974 51.1437V52.935C29.9974 53.5939 30.0385 53.6556 30.8209 53.7174V53.9851H28.4738V53.7174C29.0915 53.6762 29.1738 53.5939 29.1738 52.9556V50.8967C29.1738 50.2584 29.1121 50.2172 28.5562 50.1349V49.9084C29.0503 49.826 29.5032 49.7231 29.9974 49.5172V50.6084H30.0385V50.5672Z" fill="#0E1B34"/>
<path d="M35.124 53.9439V53.6762C35.7005 53.6144 35.7623 53.5321 35.7623 52.8526V51.2261C35.7623 50.5466 35.4946 50.1143 34.877 50.1143C34.5064 50.1143 34.1152 50.3613 33.8064 50.6084V52.9144C33.8064 53.5939 33.8681 53.635 34.4446 53.6968V53.9645H32.2416V53.6968C32.9211 53.6144 32.9622 53.5733 32.9622 52.9144V50.8967C32.9622 50.2584 32.9005 50.2172 32.3652 50.1349V49.9084C32.8387 49.826 33.3328 49.7025 33.7858 49.4966V50.2996C33.9917 50.1554 34.1975 49.9907 34.4652 49.8466C34.7534 49.6613 35.0005 49.5378 35.2887 49.5378C36.0917 49.5378 36.5858 50.0937 36.5858 51.0614V52.935C36.5858 53.6144 36.6476 53.6556 37.224 53.7174V53.9851H35.124V53.9439Z" fill="#0E1B34"/>
<path d="M40.8891 54.0674C40.7244 54.0674 40.5185 53.985 40.4156 53.8821C40.2715 53.7585 40.2097 53.6144 40.1685 53.4497C39.7774 53.7173 39.3038 54.0674 38.995 54.0674C38.2744 54.0674 37.7803 53.4703 37.7803 52.8526C37.7803 52.379 38.0273 52.0702 38.5832 51.8849C39.2009 51.6996 39.9009 51.4113 40.1274 51.2466V51.0613C40.1274 50.3407 39.7979 49.9701 39.3038 49.9701C39.1185 49.9701 38.9744 50.0319 38.8715 50.1554C38.7479 50.2995 38.6656 50.5054 38.5832 50.8143C38.542 50.979 38.4391 51.0613 38.2744 51.0613C38.0891 51.0613 37.842 50.8554 37.842 50.6289C37.842 50.4848 37.9656 50.3819 38.1509 50.2378C38.4391 50.0319 39.0979 49.6613 39.6538 49.5377C39.9626 49.5377 40.2509 49.6201 40.4979 49.8054C40.8479 50.0936 40.9509 50.5054 40.9509 51.0407V52.832C40.9509 53.285 41.1362 53.4291 41.3215 53.4291C41.445 53.4291 41.5685 53.3879 41.6715 53.3261L41.7744 53.5732L40.8891 54.0674ZM40.1479 51.5761C39.9421 51.6996 39.4891 51.8849 39.2832 51.9673C38.892 52.1526 38.6862 52.3379 38.6862 52.6879C38.6862 53.2026 39.0773 53.4291 39.3862 53.4291C39.6332 53.4291 39.9626 53.2644 40.1479 53.0997V51.5761Z" fill="#0E1B34"/>
<path d="M43.9359 53.9439C43.7506 54.0263 43.6065 54.0674 43.5241 54.0674C42.8859 54.0674 42.5153 53.6968 42.5153 52.8733V50.0319H41.8359L41.7947 49.929L42.0829 49.6202H42.5153V48.8995L43.2153 48.2201L43.3594 48.2407V49.5996H44.4712C44.5741 49.7231 44.533 49.929 44.4094 50.0114H43.3594V52.5232C43.3594 53.3262 43.6888 53.4498 43.9565 53.4498C44.183 53.4498 44.4094 53.3674 44.5535 53.285L44.6565 53.5321L43.9359 53.9439Z" fill="#0E1B34"/>
<path d="M45.0481 53.9439V53.6763C45.6658 53.6145 45.7481 53.5527 45.7481 52.8733V50.8555C45.7481 50.2378 45.707 50.1967 45.1305 50.1143V49.8672C45.6452 49.7849 46.1393 49.6613 46.5717 49.476V52.8733C46.5717 53.5527 46.6334 53.6145 47.2923 53.6763V53.9439H45.0481ZM45.5834 48.1377C45.5834 47.8289 45.8305 47.6024 46.1187 47.6024C46.407 47.6024 46.6334 47.8289 46.6334 48.1377C46.6334 48.426 46.407 48.6731 46.0981 48.6731C45.8305 48.6731 45.5834 48.426 45.5834 48.1377Z" fill="#0E1B34"/>
<path d="M50.0304 49.4966C51.2863 49.4966 52.1922 50.5055 52.1922 51.7202C52.1922 53.3056 50.9981 54.0674 50.0098 54.0674C48.6098 54.0674 47.8069 52.9968 47.8069 51.8849C47.8069 50.2584 49.0833 49.4966 50.0304 49.4966ZM49.8863 49.8466C49.3098 49.8466 48.7745 50.4437 48.7745 51.5555C48.7745 52.8115 49.3098 53.738 50.1128 53.738C50.7098 53.738 51.2039 53.3056 51.2039 51.9467C51.2245 50.7525 50.751 49.8466 49.8863 49.8466Z" fill="#0E1B34"/>
<path d="M55.5894 53.9439V53.6762C56.1659 53.6144 56.2277 53.5321 56.2277 52.8526V51.2261C56.2277 50.5466 55.96 50.1143 55.3424 50.1143C54.9718 50.1143 54.5806 50.3613 54.2718 50.6084V52.9144C54.2718 53.5939 54.3335 53.635 54.91 53.6968V53.9645H52.7071V53.6968C53.3865 53.6144 53.4277 53.5733 53.4277 52.9144V50.8967C53.4277 50.2584 53.3659 50.2172 52.8306 50.1349V49.9084C53.3041 49.826 53.7982 49.7025 54.2512 49.4966V50.2996C54.4571 50.1554 54.663 49.9907 54.9306 49.8466C55.2188 49.6613 55.4659 49.5378 55.7541 49.5378C56.5571 49.5378 57.0512 50.0937 57.0512 51.0614V52.935C57.0512 53.6144 57.113 53.6556 57.6894 53.7174V53.9851H55.5894V53.9439Z" fill="#0E1B34"/>
<path d="M61.3742 54.0674C61.2095 54.0674 61.0036 53.985 60.9007 53.8821C60.7566 53.7585 60.6948 53.6144 60.6536 53.4497C60.2625 53.7173 59.7889 54.0674 59.4801 54.0674C58.7595 54.0674 58.2654 53.4703 58.2654 52.8526C58.2654 52.379 58.5124 52.0702 59.0683 51.8849C59.686 51.6996 60.386 51.4113 60.6125 51.2466V51.0613C60.6125 50.3407 60.283 49.9701 59.7889 49.9701C59.6036 49.9701 59.4595 50.0319 59.3566 50.1554C59.233 50.2995 59.1507 50.5054 59.0683 50.8143C59.0271 50.979 58.9242 51.0613 58.7595 51.0613C58.5742 51.0613 58.3271 50.8554 58.3271 50.6289C58.3271 50.4848 58.4507 50.3819 58.636 50.2378C58.9242 50.0319 59.583 49.6613 60.1389 49.5377C60.4477 49.5377 60.736 49.6201 60.983 49.8054C61.333 50.0936 61.436 50.5054 61.436 51.0407V52.832C61.436 53.285 61.6213 53.4291 61.8066 53.4291C61.9301 53.4291 62.0536 53.3879 62.1566 53.3261L62.2595 53.5732L61.3742 54.0674ZM60.633 51.5761C60.4272 51.6996 59.9742 51.8849 59.7683 51.9673C59.3771 52.1526 59.1713 52.3379 59.1713 52.6879C59.1713 53.2026 59.5624 53.4291 59.8713 53.4291C60.1183 53.4291 60.4477 53.2644 60.633 53.0997V51.5761Z" fill="#0E1B34"/>
<path d="M62.4863 53.9439V53.6762C63.104 53.6144 63.1863 53.5527 63.1863 52.8938V48.2406C63.1863 47.5612 63.1245 47.5406 62.5069 47.4994V47.2524C63.0422 47.1906 63.6598 47.0465 64.0304 46.9023V52.8938C64.0304 53.5733 64.1128 53.635 64.751 53.6762V53.9439H62.4863Z" fill="#0E1B34"/>
<path d="M73.7067 52.2762C73.5625 52.7498 73.3155 53.491 73.1302 53.8204C72.842 53.8822 71.9772 54.0881 71.2566 54.0881C68.7449 54.0881 67.6331 52.3792 67.6331 50.8144C67.6331 48.7349 69.2596 47.376 71.5449 47.376C72.3684 47.376 73.0684 47.6025 73.3361 47.6436C73.4184 48.1995 73.5008 48.6113 73.542 49.1672L73.2331 49.229C72.9655 48.1584 72.3478 47.7466 71.2566 47.7466C69.589 47.7466 68.6831 49.1467 68.6831 50.6291C68.6831 52.4821 69.7949 53.7381 71.3184 53.7381C72.3478 53.7381 72.9037 53.1822 73.4184 52.1733L73.7067 52.2762Z" fill="#0E1B34"/>
<path d="M76.6714 49.4966C77.9273 49.4966 78.8332 50.5055 78.8332 51.7202C78.8332 53.3056 77.639 54.0674 76.6508 54.0674C75.2508 54.0674 74.4478 52.9968 74.4478 51.8849C74.4478 50.2584 75.7243 49.4966 76.6714 49.4966ZM76.5273 49.8466C75.9508 49.8466 75.4155 50.4437 75.4155 51.5555C75.4155 52.8115 75.9508 53.738 76.7537 53.738C77.3508 53.738 77.8449 53.3056 77.8449 51.9467C77.8655 50.7525 77.392 49.8466 76.5273 49.8466Z" fill="#0E1B34"/>
<path d="M82.2304 53.9439V53.6762C82.8069 53.6144 82.8686 53.5321 82.8686 52.8526V51.2261C82.8686 50.5466 82.601 50.1143 81.9833 50.1143C81.6127 50.1143 81.2216 50.3613 80.9127 50.6084V52.9144C80.9127 53.5939 80.9745 53.635 81.551 53.6968V53.9645H79.348V53.6968C80.0274 53.6144 80.0686 53.5733 80.0686 52.9144V50.8967C80.0686 50.2584 80.0069 50.2172 79.4716 50.1349V49.9084C79.9451 49.826 80.4392 49.7025 80.8922 49.4966V50.2996C81.098 50.1554 81.3039 49.9907 81.5716 49.8466C81.8598 49.6613 82.1069 49.5378 82.3951 49.5378C83.1981 49.5378 83.6922 50.0937 83.6922 51.0614V52.935C83.6922 53.6144 83.7539 53.6556 84.3304 53.7174V53.9851H82.2304V53.9439Z" fill="#0E1B34"/>
<path d="M87.4184 50.7938C87.2331 50.2173 86.8831 49.8261 86.389 49.8261C86.0184 49.8261 85.7508 50.0938 85.7508 50.4849C85.7508 50.8967 86.142 51.1438 86.5743 51.3291C87.3361 51.638 87.8302 51.988 87.8302 52.688C87.8302 53.5939 86.9861 54.0675 86.1831 54.0675C85.6684 54.0675 85.1949 53.8822 85.0302 53.7381C84.9684 53.5939 84.8655 52.8939 84.8655 52.5233L85.1331 52.4821C85.3184 53.141 85.7508 53.7175 86.3684 53.7175C86.7184 53.7175 87.0684 53.4498 87.0684 53.038C87.0684 52.6056 86.8008 52.3792 86.2861 52.1527C85.689 51.885 85.0302 51.5556 85.0302 50.7732C85.0302 50.0732 85.6272 49.4761 86.5537 49.4761C86.9861 49.4761 87.2537 49.5584 87.4596 49.6614C87.542 49.8673 87.6449 50.485 87.6655 50.7114L87.4184 50.7938Z" fill="#0E1B34"/>
<path d="M93.3071 53.7174C93.1013 53.738 92.813 53.7997 92.5454 53.8821C92.2777 53.9439 92.0101 54.0262 91.8248 54.0674L91.763 54.0056V53.3056C91.5365 53.4703 91.3307 53.6556 91.0424 53.8203C90.7542 53.985 90.5483 54.0674 90.2806 54.0674C89.6012 54.0674 89.0248 53.6556 89.0248 52.585V50.6702C89.0248 50.1349 88.9424 50.0937 88.6953 50.0319L88.4071 49.9701V49.7437C88.613 49.7231 88.8806 49.7231 89.1483 49.6613C89.4159 49.6407 89.6836 49.5995 89.8689 49.5583C89.8483 49.8878 89.8483 50.3407 89.8483 50.9996V52.3379C89.8483 53.2027 90.2601 53.4291 90.713 53.4291C91.063 53.4291 91.4336 53.285 91.763 52.9762V50.6702C91.763 50.1349 91.6601 50.0937 91.3512 50.0319L91.0012 49.9701V49.7437C91.2895 49.7231 91.6189 49.7025 91.9071 49.6613C92.1954 49.6407 92.4424 49.5995 92.5866 49.5583V52.8526C92.5866 53.3674 92.6689 53.4291 93.0395 53.4497L93.3071 53.4703V53.7174Z" fill="#0E1B34"/>
<path d="M93.6364 53.9439V53.6762C94.254 53.6144 94.3364 53.5527 94.3364 52.8938V48.2406C94.3364 47.5612 94.2746 47.5406 93.657 47.4994V47.2524C94.1923 47.1906 94.8099 47.0465 95.1805 46.9023V52.8938C95.1805 53.5733 95.2629 53.635 95.9011 53.6762V53.9439H93.6364Z" fill="#0E1B34"/>
<path d="M98.2481 53.9439C98.0628 54.0263 97.9187 54.0674 97.8363 54.0674C97.1981 54.0674 96.8275 53.6968 96.8275 52.8733V50.0319H96.1481L96.1069 49.929L96.3951 49.6202H96.8275V48.8995L97.5275 48.2201L97.6716 48.2407V49.5996H98.7834C98.8863 49.7231 98.8451 49.929 98.7216 50.0114H97.6716V52.5232C97.6716 53.3262 98.001 53.4498 98.2687 53.4498C98.4951 53.4498 98.7216 53.3674 98.8657 53.285L98.9687 53.5321L98.2481 53.9439Z" fill="#0E1B34"/>
<path d="M99.3604 53.9439V53.6763C99.978 53.6145 100.06 53.5527 100.06 52.8733V50.8555C100.06 50.2378 100.019 50.1967 99.4427 50.1143V49.8672C99.9574 49.7849 100.452 49.6613 100.884 49.476V52.8733C100.884 53.5527 100.946 53.6145 101.604 53.6763V53.9439H99.3604ZM99.8751 48.1377C99.8751 47.8289 100.122 47.6024 100.41 47.6024C100.699 47.6024 100.925 47.8289 100.925 48.1377C100.925 48.426 100.699 48.6731 100.39 48.6731C100.122 48.6731 99.8751 48.426 99.8751 48.1377Z" fill="#0E1B34"/>
<path d="M104.877 53.9439V53.6762C105.454 53.6144 105.516 53.5321 105.516 52.8526V51.2261C105.516 50.5466 105.248 50.1143 104.63 50.1143C104.26 50.1143 103.869 50.3613 103.56 50.6084V52.9144C103.56 53.5939 103.621 53.635 104.198 53.6968V53.9645H101.995V53.6968C102.674 53.6144 102.716 53.5733 102.716 52.9144V50.8967C102.716 50.2584 102.654 50.2172 102.119 50.1349V49.9084C102.592 49.826 103.086 49.7025 103.539 49.4966V50.2996C103.745 50.1554 103.951 49.9907 104.219 49.8466C104.507 49.6613 104.754 49.5378 105.042 49.5378C105.845 49.5378 106.339 50.0937 106.339 51.0614V52.935C106.339 53.6144 106.401 53.6556 106.977 53.7174V53.9851H104.877V53.9439Z" fill="#0E1B34"/>
<path d="M111.837 49.7024C111.755 49.8671 111.549 50.1142 111.384 50.2172L110.828 50.176C111.013 50.4025 111.116 50.7113 111.116 51.0613C111.116 52.1114 110.231 52.6467 109.346 52.6467C109.16 52.6467 108.996 52.6261 108.831 52.5849C108.687 52.6673 108.543 52.8526 108.543 52.9967C108.543 53.182 108.728 53.3673 109.16 53.3673C109.531 53.3673 109.86 53.3467 110.21 53.3467C110.828 53.3467 111.652 53.532 111.652 54.5203C111.652 55.5292 110.478 56.4969 109.16 56.4969C108.028 56.4969 107.431 55.838 107.41 55.2821C107.41 55.0556 107.513 54.8703 107.657 54.7262C107.863 54.5409 108.234 54.2321 108.46 54.0468C108.11 53.9438 107.863 53.7173 107.719 53.5114C107.637 53.3673 107.596 53.182 107.616 53.0997C108.007 52.9349 108.337 52.6879 108.502 52.5026C108.028 52.3173 107.616 51.8437 107.616 51.1849C107.616 50.0525 108.625 49.5377 109.407 49.5377H109.428C109.757 49.5377 110.087 49.6201 110.396 49.8054C110.89 49.7848 111.405 49.723 111.775 49.6613L111.837 49.7024ZM109.552 54.0674C109.078 54.0674 108.852 54.1291 108.666 54.2733C108.419 54.4791 108.234 54.7468 108.234 55.0145C108.234 55.5498 108.79 55.9616 109.552 55.9616C110.478 55.9616 110.972 55.488 110.972 54.8703C110.972 54.5409 110.787 54.2938 110.499 54.1703C110.252 54.088 109.963 54.0674 109.552 54.0674ZM109.325 49.8054C108.934 49.8054 108.522 50.2172 108.522 50.9996C108.522 51.7614 108.893 52.3173 109.449 52.3173C109.881 52.2967 110.252 51.9261 110.252 51.1437C110.272 50.3819 109.902 49.8054 109.325 49.8054Z" fill="#0E1B34"/>
<path d="M32.8389 24.7689V23.76C35.1036 23.4512 35.4125 23.1423 34.9183 21.7835C34.4654 20.404 33.8066 18.5509 33.0448 16.4302H25.4065C24.8506 18.0568 24.3565 19.4775 23.9036 20.9187C23.1006 23.1012 23.3888 23.4924 26.1271 23.76V24.7689H18.3035V23.76C20.5888 23.41 21.0829 23.1629 22.3594 20.0745L29.7507 1.60596L30.9242 1.29712C33.1889 7.45331 35.536 13.9389 37.8419 20.1157C38.9537 23.1629 39.4478 23.513 41.7743 23.76V24.7689H32.8389ZM29.4007 6.05324H29.3389C28.1654 8.99751 27.0742 12.0653 26.0447 14.9478H32.5095L29.4007 6.05324Z" fill="#0E1B34"/>
<path d="M67.5922 21.3922C65.801 23.8218 63.0422 25.5719 60.6539 25.5719C55.4245 25.5719 52.3568 21.454 52.3568 17.1097C52.3568 14.0007 53.7156 11.2829 56.4745 9.1622C58.6774 7.55624 61.1481 6.8562 62.651 6.8562H62.6922C64.3598 6.8562 65.7598 7.41211 66.3569 7.96802C66.9128 8.4004 67.0363 8.72983 67.0363 9.20338C67.0363 10.0887 66.1099 10.9946 65.6363 10.9946C65.3893 10.9946 65.204 10.8711 64.8334 10.5623C63.5981 9.36809 62.1157 8.85336 60.7157 8.85336C58.1216 8.85336 55.8157 11.0152 55.8157 15.2772C55.8157 20.8569 59.7275 22.6894 61.951 22.6894C63.701 22.6894 65.0187 22.257 66.8922 20.4863L67.5922 21.3922Z" fill="#0E1B34"/>
<path d="M79.5539 6.87683C84.6598 6.87683 88.4481 10.9947 88.4481 15.9773C88.4481 22.4835 83.5892 25.5925 79.5127 25.5925C73.7686 25.5925 70.4538 21.1658 70.4538 16.6567C70.4538 9.94463 75.7245 6.87683 79.5127 6.87683H79.5539ZM79.0392 8.2769C76.6509 8.2769 74.448 10.7476 74.448 15.2978C74.448 20.404 76.6509 24.2336 79.9451 24.2336C82.3745 24.2336 84.4539 22.4835 84.4539 16.8626C84.4539 12.0447 82.5392 8.2769 79.0598 8.2769H79.0392Z" fill="#0E1B34"/>
<path d="M103.21 25.0983V24.0276C105.557 23.7805 105.845 23.4717 105.845 20.6304V13.9389C105.845 11.1387 104.775 9.38864 102.181 9.38864C100.616 9.38864 99.0717 10.3769 97.8364 11.3858V20.8363C97.8364 23.5952 98.0835 23.7805 100.472 24.0276V25.0983H91.454V24.0276C94.2129 23.6982 94.4393 23.5129 94.4393 20.8363V12.5388C94.4393 9.90337 94.1511 9.77984 92.0099 9.38864V8.44153C93.9658 8.09152 96.004 7.59737 97.8364 6.7738V10.0475C98.6805 9.45041 99.5452 8.81214 100.595 8.17387C101.748 7.37089 102.798 6.89734 103.951 6.89734C107.225 6.89734 109.263 9.20334 109.263 13.1565V20.8569C109.263 23.6158 109.51 23.8011 111.857 24.0482V25.1188H103.21V25.0983Z" fill="#0E1B34"/>
<path d="M49.3916 8.93576C49.3916 10.2329 48.3416 11.3035 47.024 11.3035C45.7269 11.3035 44.6563 10.2535 44.6563 8.93576C44.6563 7.63864 45.7063 6.56799 47.024 6.56799C48.3416 6.56799 49.3916 7.63864 49.3916 8.93576Z" fill="#0E1B34"/>
<path d="M49.3918 8.93584C49.3918 10.2124 48.3624 11.2624 47.1065 11.2624C45.8506 11.2624 44.8212 10.233 44.8212 8.93584C44.8212 7.65931 45.8506 6.60925 47.1065 6.60925C48.383 6.60925 49.3918 7.65931 49.3918 8.93584Z" fill="#0E1B34"/>
<path d="M47.1271 6.77397C48.3624 6.77397 49.3712 7.78284 49.3918 9.0182C49.3918 8.99761 49.3918 8.97702 49.3918 8.93584C49.3918 7.65931 48.3624 6.60925 47.1065 6.60925C45.8506 6.60925 44.8212 7.63872 44.8212 8.93584C44.8212 8.95643 44.8212 8.97702 44.8212 9.0182C44.883 7.76225 45.8918 6.77397 47.1271 6.77397Z" fill="#0E1B34"/>
<path d="M49.2066 8.00928C49.3095 8.27694 49.3713 8.56519 49.3713 8.87403C49.3713 10.1506 48.3419 11.2006 47.086 11.2006C46.1595 11.2006 45.3566 10.6241 45.0066 9.80054C45.336 10.6447 46.1595 11.2624 47.1272 11.2624C48.3831 11.2624 49.4125 10.2329 49.4125 8.93579C49.3919 8.60637 49.3301 8.29753 49.2066 8.00928Z" fill="#0E1B34"/>
<path d="M49.1035 9.26506C49.1035 10.3151 48.2593 11.1593 47.2093 11.1593C46.1593 11.1593 45.3152 10.3151 45.3152 9.26506C45.3152 8.21501 46.1593 7.37085 47.2093 7.37085C48.2593 7.37085 49.1035 8.21501 49.1035 9.26506Z" fill="#0E1B34"/>
<path d="M45.3565 9.32699C45.3565 8.27694 46.2006 7.43278 47.2506 7.43278C47.9506 7.43278 48.5683 7.82398 48.8977 8.40048C48.5889 7.76221 47.9506 7.32983 47.1889 7.32983C46.1389 7.32983 45.2947 8.17399 45.2947 9.22405C45.2947 9.57407 45.3977 9.90349 45.5624 10.1712C45.4389 9.92408 45.3565 9.63583 45.3565 9.32699Z" fill="#0E1B34"/>
<path d="M46.0766 10.4182C45.5002 9.55341 45.7266 8.37982 46.5913 7.80332C47.1061 7.4533 47.7443 7.39153 48.2796 7.59743C47.6825 7.24741 46.9002 7.24741 46.2619 7.65919C45.3972 8.23569 45.1708 9.40928 45.7472 10.274C45.9737 10.624 46.3031 10.8711 46.6737 10.9947C46.4472 10.8505 46.2413 10.6652 46.0766 10.4182Z" fill="#0E1B34"/>
<path d="M47.9091 8.60645C48.0327 8.70939 48.115 8.83293 48.1768 8.99764C48.3827 9.51237 48.115 10.0889 47.6003 10.2742C47.3121 10.3771 47.0033 10.3565 46.7562 10.2124C47.0238 10.4595 47.415 10.5418 47.765 10.3977C48.2797 10.1918 48.5268 9.63591 48.3415 9.12118C48.2591 8.8947 48.0944 8.72998 47.9091 8.60645Z" fill="#0E1B34"/>
<path d="M48.6708 8.25635C48.7943 8.48283 48.856 8.75049 48.856 9.03874C48.856 9.98585 48.0943 10.7477 47.1472 10.7477C46.6119 10.7477 46.1384 10.5006 45.8296 10.13C46.1178 10.6653 46.6737 11.0565 47.3325 11.0565C48.2796 11.0565 49.0413 10.2947 49.0413 9.36817C49.0413 8.93579 48.8972 8.5446 48.6708 8.25635Z" fill="#0E1B34"/>
<path d="M46.0151 8.52397C45.8915 8.8534 45.6033 8.97693 45.4386 8.66809C45.3151 8.35925 45.3768 8.13277 45.4798 7.98865C45.5621 7.82393 45.9533 7.57686 46.1592 7.74158C46.3445 7.90629 46.1386 8.23572 46.0151 8.52397Z" fill="#0E1B34"/>
<path d="M47.6825 9.34749C47.7649 9.1416 47.9502 9.05924 48.0531 9.26514C48.1355 9.47103 48.0943 9.61515 48.0325 9.7181C47.9708 9.82105 47.7237 9.98576 47.5796 9.88281C47.456 9.75928 47.6002 9.55339 47.6825 9.34749Z" fill="#0E1B34"/>
<path d="M48.8359 8.91523C48.8153 9.07994 48.8976 9.77998 48.1976 10.5418C47.3535 11.18 48.6094 10.3359 48.6094 8.91523C48.5888 7.49457 47.3741 6.671 48.1976 7.28868C48.8771 8.05048 48.8153 8.7711 48.8359 8.91523Z" fill="#0E1B34"/>
<path d="M45.5005 9.82109C45.5005 9.82109 47.5799 11.4888 48.7947 9.77991C48.7947 9.77991 47.6417 12.2506 45.5005 9.82109Z" fill="#0E1B34"/>
<path d="M17.15 42.8464C17.15 42.8464 44.5325 47.5408 74.4063 42.4346C74.4063 42.414 44.1825 49.5379 17.15 42.8464Z" fill="#0E1B34"/>
<path d="M23.1826 41.6934C23.1826 41.6934 44.1415 45.2966 66.9946 41.3846C67.0152 41.364 43.8739 46.8202 23.1826 41.6934Z" fill="#0E1B34"/>
<path d="M52.6856 34.1577C54.5592 34.6313 55.7327 35.2901 55.7327 36.0519C55.7327 37.4726 51.5533 38.605 46.3856 38.605C41.2179 38.605 37.0385 37.452 37.0385 36.0519C37.0385 35.3107 38.212 34.6313 40.0855 34.1577C34.7532 34.7548 31.0472 36.1137 31.0472 37.6785C31.0472 39.8198 37.9032 41.5493 46.3856 41.5493C54.8474 41.5493 61.7239 39.8198 61.7239 37.6785C61.7239 36.1137 58.018 34.7754 52.6856 34.1577Z" fill="#0E1B34"/>
<path d="M31.7684 36.999C31.7684 36.9373 31.789 36.8549 31.789 36.7931C31.7066 36.6696 31.6654 36.5255 31.6654 36.3814C31.6654 35.8872 32.139 35.4342 32.9831 35.0225C31.3772 35.5372 30.4095 36.1755 30.4095 36.8549C30.4095 38.2344 34.239 39.408 39.5302 39.8198C34.9802 39.3462 31.7684 38.255 31.7684 36.999Z" fill="#0E1B34"/>
<path d="M53.8386 36.3195C53.8386 36.2783 53.8386 36.2371 53.818 36.1959C53.8592 36.1136 53.8798 36.0518 53.8798 35.9694C53.8798 35.7018 53.6121 35.4341 53.118 35.2076C54.0651 35.4959 54.6209 35.8459 54.6209 36.2371C54.6209 37.0195 52.3768 37.6784 49.3091 37.9048C51.965 37.6372 53.8386 37.0195 53.8386 36.3195Z" fill="#0E1B34"/>
<path d="M82.3332 31.79C85.7715 33.1695 87.748 34.7549 87.748 36.4432C87.748 41.7347 68.5184 46.0378 44.8212 46.0378C29.5857 46.0378 16.2033 44.2671 8.58559 41.5905C15.9151 44.5348 29.9769 46.5114 46.1182 46.5114C69.8361 46.5114 89.045 42.2288 89.045 36.9168C89.0244 35.0226 86.5744 33.2725 82.3332 31.79Z" fill="#0E1B34"/>
<path d="M2.69724 36.7727C2.69724 31.4812 21.9268 27.1781 45.624 27.1781C61.4565 27.1781 75.2713 29.0929 82.7243 31.9342C75.4978 28.9076 61.2506 26.8486 44.8211 26.8486C21.1033 26.8486 1.8737 31.1518 1.8737 36.4432C1.8737 38.1933 3.99431 39.8611 7.70022 41.2611C4.50902 39.9228 2.69724 38.3992 2.69724 36.7727Z" fill="#0E1B34"/>
<path d="M47.2302 43.2788C28.3095 43.2788 12.9506 39.861 12.9506 35.6196C12.9506 34.2195 14.6388 32.9018 17.5829 31.7694C13.177 33.0665 10.5417 34.6725 10.5417 36.4226C10.5417 40.6434 25.8801 44.0818 44.8214 44.0818C57.4833 44.0818 68.5392 42.5582 74.4687 40.2728C68.1892 42.1052 58.3274 43.2788 47.2302 43.2788Z" fill="#0E1B34"/>
<path d="M45.7884 44.8023C23.5118 44.8023 5.43518 40.7668 5.43518 35.7842C5.43518 34.8989 6.01166 34.0547 7.06167 33.2517C5.39401 34.24 4.46753 35.3106 4.46753 36.443C4.46753 41.4257 22.5236 45.4612 44.8208 45.4612C63.165 45.4612 78.6475 42.7228 83.5475 38.9961C77.7828 42.3933 63.0415 44.8023 45.7884 44.8023Z" fill="#0E1B34"/>
<path d="M74.3657 31.0076C79.1834 32.4282 82.0452 34.1989 82.0452 36.1137C82.0452 40.7875 65.0803 44.5759 44.1625 44.5759C32.8389 44.5759 22.6888 43.4641 15.7505 41.714C22.6682 43.7523 33.6213 45.07 45.9331 45.07C66.8509 45.07 83.8158 41.2816 83.8158 36.6079C83.8158 34.4666 80.254 32.5106 74.3657 31.0076Z" fill="#0E1B34"/>
<path d="M50.3799 30.3898C39.8181 30.3898 30.8004 31.8104 27.2386 33.8282C31.7886 32.6752 38.5622 32.0369 46.1593 31.934C64.6271 31.7075 70.9066 34.3223 70.9066 37.2666C70.9066 37.9254 70.3301 38.5843 69.2801 39.1608C72.9242 38.2343 75.1066 37.0401 75.1066 35.7224C75.1272 32.7781 64.0506 30.3898 50.3799 30.3898Z" fill="#0E1B34"/>
<path d="M25.9623 38.049C25.9623 34.7135 38.0683 32.0163 53.0155 32.0163C57.8743 32.0163 62.4449 32.3046 66.3979 32.7987C61.4567 31.3369 53.6331 30.3898 44.8007 30.3898C29.8535 30.3898 17.7475 33.087 17.7475 36.4224C17.7475 38.6667 23.2652 40.6432 31.4388 41.6727C28.0006 40.6844 25.9623 39.4285 25.9623 38.049Z" fill="#0E1B34"/>
<path d="M24.15 37.6578C24.15 34.3224 36.256 31.6252 51.2032 31.6252C56.0208 31.6252 60.5503 31.9134 64.4621 32.4076C60.015 31.6869 54.5591 31.2751 48.6502 31.2751C33.703 31.2751 21.5971 33.9723 21.5971 37.3078C21.5971 39.552 27.1147 41.5286 35.2883 42.5581C35.2677 42.5581 35.2677 42.5581 35.2472 42.5581C28.5353 41.4257 24.15 39.655 24.15 37.6578Z" fill="#0E1B34"/>
<path d="M15.2358 36.8137C15.2358 33.1489 30.3477 30.184 49.0008 30.184C55.0126 30.184 60.6744 30.4928 65.5538 31.0282C59.995 30.2458 53.2008 29.7722 45.8302 29.7722C27.1771 29.7722 12.0652 32.7371 12.0652 36.402C12.0652 38.8727 18.9417 41.014 29.133 42.167C29.1124 42.167 29.1124 42.167 29.0918 42.1464C20.7123 40.9522 15.2358 39.0168 15.2358 36.8137Z" fill="#0E1B34"/>
<path d="M44.8213 28.3103C29.6888 28.3103 16.7181 30.3692 11.221 33.2929C17.0475 30.5339 29.627 28.6191 44.183 28.6191C64.2979 28.6191 80.6245 32.2634 80.6245 36.7519C80.6245 37.8637 79.6157 38.9344 77.8039 39.9021C80.0274 38.852 81.2833 37.6784 81.2833 36.4431C81.2421 31.9546 64.9361 28.3103 44.8213 28.3103Z" fill="#0E1B34"/>
<path d="M44.409 28.537C29.2765 28.537 16.3058 30.5959 10.8087 33.5196C16.6353 30.7606 29.2148 28.8458 43.7708 28.8458C63.8856 28.8458 80.2122 32.4901 80.2122 36.9786C80.2122 38.0904 79.2034 39.161 77.3916 40.1287C79.6152 39.0787 80.871 37.9051 80.871 36.6698C80.8299 32.1813 64.5239 28.537 44.409 28.537Z" fill="#0E1B34"/>
<path d="M47.8887 31.8517C42.1652 31.8517 36.9769 32.3664 33.1063 33.2106C36.071 32.8606 39.4269 32.6547 42.9681 32.6547C54.9711 32.6547 64.7094 34.9195 64.7094 37.7196C64.7094 39.1815 62.033 40.5198 57.7712 41.4463C64.8124 40.6021 69.6507 38.8932 69.6507 36.9166C69.6301 34.1165 59.9124 31.8517 47.8887 31.8517Z" fill="#0E1B34"/>
<path d="M67.8798 37.2872C67.8798 35.0636 59.8092 33.2723 49.865 33.2723C45.7473 33.2723 41.9384 33.5812 38.9119 34.0959C41.2796 33.8488 43.9355 33.7047 46.7561 33.7047C56.7003 33.7047 64.771 35.496 64.771 37.7196C64.771 38.8932 62.5474 39.9227 59.0062 40.6639C60.4268 40.4992 61.7445 40.2933 62.918 40.0668C65.9857 39.3462 67.8798 38.3785 67.8798 37.2872Z" fill="#0E1B34"/>
<path d="M45.0887 28.2897C29.8944 28.2897 16.8826 30.3486 11.3443 33.2929C17.1914 30.5339 29.8121 28.5985 44.4504 28.5985C64.6477 28.5985 81.036 32.2634 81.036 36.7725C81.036 37.8843 80.0272 38.9549 78.1948 39.9226C80.4184 38.8726 81.6743 37.6784 81.6743 36.443C81.6537 31.934 65.2859 28.2897 45.0887 28.2897Z" fill="#0E1B34"/>
<path d="M49.2063 41.1993C51.1416 41.1993 52.9945 41.0963 54.6416 40.911C56.2681 40.6228 57.5858 40.2316 58.4711 39.7992C56.0828 40.561 52.2122 41.0757 47.868 41.0757C46.4474 41.0757 45.0886 41.014 43.8121 40.9316C45.4798 41.0963 47.2916 41.1993 49.2063 41.1993Z" fill="#0E1B34"/>
<path d="M46.53 40.2728C48.4653 40.2728 50.3183 40.1698 51.9654 40.0051C53.5712 39.7169 54.9095 39.3257 55.7948 38.8933C53.4065 39.6551 49.5359 40.1493 45.1918 40.1493C43.7712 40.1493 42.4123 40.0875 41.1359 40.0051C42.8035 40.1698 44.6153 40.2728 46.53 40.2728Z" fill="#0E1B34"/>
<path d="M44.0391 35.1872C44.0391 35.1872 45.0891 36.0931 46.8803 36.1343C48.692 36.1961 49.7215 35.4137 49.7215 35.4137C49.7215 35.4137 49.3303 34.8783 49.0215 34.5695C48.692 34.2813 48.4038 33.8077 48.3832 32.7371C48.3009 28.7427 48.7744 24.9337 48.8362 20.9188C48.8773 18.0569 48.9803 13.6302 47.2303 13.1772C46.0773 12.8684 45.0685 15.3803 45.1097 19.0864C45.1508 22.7924 45.6655 30.3075 45.5626 32.8194C45.5214 34.0754 45.1097 34.5283 44.7391 34.796C44.3685 35.1048 44.0391 35.1872 44.0391 35.1872Z" fill="#0E1B34"/>
<path d="M47.1271 15.2774C47.4359 14.9686 48.3418 15.1745 48.2595 22.8543C48.1359 33.1489 48.0742 33.0459 47.3948 33.1489C46.7153 33.2518 46.2212 28.5163 46.1183 21.9483C46.0359 15.3804 46.8183 15.5862 47.1271 15.2774Z" fill="#0E1B34"/>
<path d="M49.1037 34.9607C49.1037 35.4754 48.1567 35.8872 47.0037 35.8872C45.8508 35.8872 44.9037 35.4754 44.9037 34.9607C44.9037 34.446 45.8508 34.0342 47.0037 34.0342C48.1567 34.0342 49.1037 34.446 49.1037 34.9607Z" fill="#0E1B34"/>
<path d="M45.0479 35.1461C45.0479 35.1461 45.6862 34.446 45.8097 32.9224C45.9538 31.3988 45.7274 23.0396 45.5421 20.4042C45.3568 17.7893 45.0479 14.8451 46.3038 13.6509C46.3038 13.6509 45.3568 14.6598 45.6656 20.713C45.9744 26.7662 46.7979 32.4283 45.8921 34.2402C45.0068 36.0726 45.0479 35.1461 45.0479 35.1461Z" fill="#0E1B34"/>
<path d="M46.0981 34.2606C46.0981 34.2606 46.0569 35.1665 47.107 35.1665C48.157 35.1665 48.1158 33.5605 48.1158 33.5605C48.1158 33.5605 47.7452 34.6724 47.107 34.4665C46.4687 34.2606 46.0981 34.2606 46.0981 34.2606Z" fill="#0E1B34"/>
<path d="M46.0771 26.1692C46.0771 26.1692 45.5006 16.8834 46.2212 15.6687C46.9418 14.4539 48.1153 14.9686 48.3006 16.7805C48.3006 16.7805 48.383 12.9509 47.0241 13.2391C45.6859 13.548 44.8624 16.1834 46.0771 26.1692Z" fill="#0E1B34"/>
<path d="M47.642 18.407C47.642 18.407 47.8067 30.2252 47.5391 32.4489C47.5391 32.4489 47.9714 31.9341 48.0332 23.4719C48.0538 18.4893 47.9714 17.2952 47.9714 17.2952C47.9714 17.2952 48.0126 18.2629 47.642 18.407Z" fill="#0E1B34"/>
<path d="M47.7244 17.1508C47.7244 17.7479 47.4361 18.2215 47.0655 18.2215C46.6949 18.2215 46.4067 17.7479 46.4067 17.1508C46.4067 16.5538 46.6949 16.0802 47.0655 16.0802C47.4361 16.0802 47.7244 16.5538 47.7244 17.1508Z" fill="#0E1B34"/>
<path d="M45.9741 34.2194C45.9741 34.2194 47.2917 35.6401 48.0947 33.8076C48.0947 33.8076 48.2182 35.1047 47.127 35.2283C46.2623 35.3312 45.9741 34.2194 45.9741 34.2194Z" fill="#0E1B34"/>
<path d="M46.3037 28.8046C46.3037 28.8046 46.3243 28.9075 46.3243 29.1134C46.3655 29.7311 46.4273 31.2547 46.2214 32.943C46.2214 32.943 47.0861 34.549 47.8479 32.8401C47.8479 32.8401 47.0861 33.746 46.7155 32.0371C46.3655 30.3076 46.3037 28.8046 46.3037 28.8046Z" fill="#0E1B34"/>
<path d="M47.9917 14.8037C47.7858 14.1037 47.0035 13.6713 46.1593 13.8154C46.674 13.7331 46.9417 13.5066 47.5182 13.836C48.0741 14.1449 47.8888 14.4125 47.9917 14.8037Z" fill="#0E1B34"/>
<path d="M48.4243 30.7192C48.4243 30.7192 47.8684 32.8399 48.1772 34.0341C48.5066 35.2283 48.6919 35.043 48.6919 35.043C48.6919 35.043 47.9302 34.6518 47.889 33.437C47.8684 32.2223 48.4243 30.7192 48.4243 30.7192Z" fill="#0E1B34"/>
<path d="M43.5447 35.1666C43.4417 35.3314 43.4623 35.5167 43.73 35.702C44.2241 36.0314 44.9035 36.1549 45.5006 36.2167C46.2006 36.2785 46.9212 36.3608 47.6418 36.2991C48.2388 36.2579 49.4536 36.1961 49.8859 35.7843C50.38 35.2696 49.5153 34.6107 48.98 34.5078C49.3506 34.5696 49.7418 34.5696 50.1124 34.6313C51.1212 34.796 51.9859 35.0019 52.8095 35.5578C53.2006 35.8255 53.5095 36.1549 53.1595 36.5255C52.5418 37.2256 51.3683 37.3491 50.4212 37.4109C49.8036 37.4521 49.1859 37.5138 48.5683 37.555C47.6418 37.6374 46.6947 37.6579 45.7476 37.6374C43.6888 37.555 41.4653 37.5344 39.53 36.8756C39.0976 36.7314 38.377 36.5255 38.2535 36.0726C38.1711 35.7843 38.3564 35.5167 38.6035 35.3108C38.8917 35.0843 39.8182 34.6519 40.2094 34.7137C39.8182 34.899 39.3447 34.9813 39.0152 35.249C38.3152 35.8049 39.3652 36.2785 39.9005 36.4638C40.3329 36.6079 40.7653 36.7108 41.2182 36.7726C41.5888 36.8344 42.1035 36.7726 42.4329 36.9167C41.6917 36.752 40.5388 36.5667 39.9417 36.1343C39.1594 35.5578 40.58 35.1255 41.0741 34.9402C41.63 34.7343 42.227 34.6107 42.8447 34.5284C43.6682 34.4254 44.5947 34.3225 45.4182 34.3842C44.78 34.446 43.8947 34.6519 43.5447 35.1666Z" fill="#0E1B34"/>
<path d="M42.9475 36.3813C42.9475 36.3813 43.7505 36.7314 44.9858 36.6902C44.9858 36.6902 44.9446 36.8549 44.6358 36.8549C44.3269 36.8755 43.1328 36.7314 42.9475 36.3813Z" fill="#0E1B34"/>
<path d="M49.5769 36.3197C49.5769 36.3197 48.7945 36.6491 47.6004 36.7109C47.6004 36.7109 47.6415 36.855 47.9504 36.8344C48.2386 36.7933 49.4122 36.608 49.5769 36.3197Z" fill="#0E1B34"/>
<path d="M44.5126 39.7786C44.5126 39.7786 46.0155 40.3139 48.1567 39.7786C48.1567 39.7786 45.0273 39.8609 44.5126 39.7786Z" fill="#0E1B34"/>
<path d="M34.5679 35.8872C34.5679 35.8872 33.1062 38.5432 41.0739 39.0168C41.0739 39.0168 35.9473 39.1815 33.4356 37.8844C31.1091 36.6696 34.5679 35.8872 34.5679 35.8872Z" fill="#0E1B34"/>
<path d="M47.6415 16.5743C47.7444 16.7391 47.8062 16.9244 47.8267 17.1303C47.9297 17.8303 47.5385 18.448 46.962 18.5303C46.6326 18.5715 46.3238 18.4274 46.0973 18.1803C46.3238 18.5509 46.715 18.7774 47.1062 18.7362C47.6826 18.6539 48.0738 18.0362 47.9709 17.3361C47.9297 17.0273 47.8062 16.7596 47.6415 16.5743Z" fill="#0E1B34"/>
</svg>

