<svg width="62" height="62" viewBox="0 0 62 62" fill="none" xmlns="http://www.w3.org/2000/svg">
<path d="M30.9999 42.6665C37.4432 42.6665 42.6666 37.4432 42.6666 30.9999C42.6666 24.5565 37.4432 19.3332 30.9999 19.3332C24.5566 19.3332 19.3333 24.5565 19.3333 30.9999C19.3333 37.4432 24.5566 42.6665 30.9999 42.6665Z" stroke="black" stroke-width="2" stroke-linecap="round" stroke-linejoin="round"/>
<path d="M42.6666 19.3333V33.9166C42.6666 36.2372 43.5885 38.4628 45.2294 40.1038C46.8704 41.7447 49.096 42.6666 51.4166 42.6666C53.7373 42.6666 55.9629 41.7447 57.6038 40.1038C59.2447 38.4628 60.1666 36.2372 60.1666 33.9166V30.9999C60.1662 24.4171 57.9389 18.028 53.847 12.8715C49.755 7.71496 44.0391 4.09433 37.6285 2.59829C31.2179 1.10225 24.4898 1.8188 18.538 4.63141C12.5863 7.44403 7.76111 12.1873 4.84695 18.0899C1.93279 23.9926 1.1011 30.7075 2.4871 37.1428C3.87311 43.578 7.39529 49.3552 12.481 53.5349C17.5666 57.7146 23.9166 60.0509 30.4985 60.1641C37.0803 60.2773 43.5069 58.1606 48.7333 54.1583" stroke="black" stroke-width="2" stroke-linecap="round" stroke-linejoin="round"/>
</svg>
