<svg width="1440" height="1000" viewBox="0 0 1440 1000" fill="none" xmlns="http://www.w3.org/2000/svg">
<g clip-path="url(#clip0)">
<rect width="1440" height="1000" fill="url(#paint0_linear)"/>
<path d="M1038.67 886.082C1066.75 886.082 1089.25 863.414 1089.25 835.332C1089.25 807.25 1066.75 784.582 1038.67 784.582C1010.59 784.582 987.918 807.25 987.918 835.332C987.918 863.414 1010.59 886.082 1038.67 886.082ZM903.335 886.082C931.416 886.082 953.915 863.414 953.915 835.332C953.915 807.25 931.416 784.582 903.335 784.582C875.253 784.582 852.585 807.25 852.585 835.332C852.585 863.414 875.253 886.082 903.335 886.082ZM903.335 919.915C863.919 919.915 784.918 939.708 784.918 979.124V1021.42H1021.75V979.124C1021.75 939.708 942.75 919.915 903.335 919.915ZM1038.67 919.915C1033.76 919.915 1028.18 920.254 1022.26 920.761C1041.88 934.971 1055.58 954.087 1055.58 979.124V1021.42H1157.08V979.124C1157.08 939.708 1078.08 919.915 1038.67 919.915Z" fill="white" fill-opacity="0.2"/>
<path d="M1366.59 899.585C1399.22 885.516 1414.26 847.69 1400.19 815.057C1386.12 782.423 1348.29 767.387 1315.66 781.456C1283.03 795.524 1267.99 833.351 1282.06 865.984C1296.13 898.617 1333.95 913.654 1366.59 899.585ZM1379.32 929.117C1339.89 946.114 1269.72 999.831 1286.65 1039.11L1299.38 1068.64L1535.64 966.787L1522.91 937.255C1505.98 897.977 1418.74 912.12 1379.32 929.117Z" fill="white" fill-opacity="0.2"/>
<path d="M89.2889 300.29C79.8475 334.55 99.949 369.946 134.209 379.387C168.468 388.829 203.864 368.727 213.305 334.468C222.747 300.208 202.645 264.812 168.386 255.371C134.126 245.929 98.7303 266.031 89.2889 300.29ZM58.2848 291.746C69.6914 250.356 71.6892 162.005 30.4537 150.641L-0.550387 142.097L-68.9046 390.13L-37.9005 398.674C3.33493 410.038 46.8782 333.137 58.2848 291.746Z" fill="white" fill-opacity="0.2"/>
<path d="M363.666 158.459C330.535 158.459 303.991 185.203 303.991 218.334C303.991 251.465 330.535 278.209 363.666 278.209C396.797 278.209 423.541 251.465 423.541 218.334C423.541 185.203 396.797 158.459 363.666 158.459ZM523.333 158.459C490.202 158.459 463.657 185.203 463.657 218.334C463.657 251.465 490.202 278.209 523.333 278.209C556.464 278.209 583.208 251.465 583.208 218.334C583.208 185.203 556.464 158.459 523.333 158.459ZM523.333 118.542C569.836 118.542 663.041 95.1911 663.041 48.6881V-1.2077L383.624 -1.2077V48.6881C383.624 95.1911 476.83 118.542 523.333 118.542ZM363.666 118.542C369.454 118.542 376.04 118.143 383.026 117.544C359.874 100.779 343.708 78.2265 343.708 48.6881V-1.2077H223.958V48.6881C223.958 95.1911 317.163 118.542 363.666 118.542Z" fill="white" fill-opacity="0.2"/>
</g>
<defs>
<linearGradient id="paint0_linear" x1="720" y1="0" x2="720" y2="1000" gradientUnits="userSpaceOnUse">
<stop stop-color="#1E88E5"/>
<stop offset="1" stop-color="#2D9CDB"/>
</linearGradient>
<clipPath id="clip0">
<rect width="1440" height="1000" fill="white"/>
</clipPath>
</defs>
</svg>
