<svg width="180" height="58" viewBox="0 0 180 58" fill="none" xmlns="http://www.w3.org/2000/svg">
<path d="M90.2306 26.9189V30H79.9587C75.85 30 73.7956 28.2882 73.7956 24.8648V20.7567C73.7956 17.3333 75.85 15.6216 79.9587 15.6216H90.2306L90.2486 18.7027H79.9767C78.6071 18.7027 77.9224 19.3873 77.9224 20.7567V24.8648C77.9224 26.2342 78.6071 26.9189 79.9767 26.9189H90.2306Z" fill="#0E1B34"/>
<path d="M95.3666 24.3603V24.8648C95.3666 26.2342 96.0514 26.9189 97.421 26.9189H107.693V30H97.421C93.3122 30 91.2579 28.2882 91.2579 24.8648V20.7567C91.2579 17.3333 93.3122 15.6216 97.421 15.6216H107.693L107.711 18.7027H97.439C96.0694 18.7027 95.3846 19.3873 95.3846 20.7567V21.2612H107.711V24.3423L95.3666 24.3603Z" fill="#0E1B34"/>
<path d="M125.137 26.9189V30H114.865C110.756 30 108.702 28.2882 108.702 24.8648V20.7567C108.702 17.3333 110.756 15.6216 114.865 15.6216H125.137L125.155 18.7027H114.883C113.514 18.7027 112.829 19.3873 112.829 20.7567V24.8648C112.829 26.2342 113.514 26.9189 114.883 26.9189H125.137Z" fill="#0E1B34"/>
<path d="M130.795 25.2432L124.974 19.8198H128.615L132.255 23.2252L135.895 19.8198H139.535L133.715 25.2432V30H130.795V25.2432Z" fill="#0E1B34"/>
<path d="M150.834 18.7207V30H146.726V18.7207H139.535V15.6396H158.025V18.7207H150.834Z" fill="#0E1B34"/>
<path d="M162.692 24.3603V24.8648C162.692 26.2342 163.377 26.9189 164.746 26.9189H175.018V30H164.746C160.638 30 158.583 28.2882 158.583 24.8648V20.7567C158.583 17.3333 160.638 15.6216 164.746 15.6216H175.018L175.036 18.7027H164.764C163.395 18.7027 162.71 19.3873 162.71 20.7567V21.2612H175.036V24.3423L162.692 24.3603Z" fill="#0E1B34"/>
<path d="M30.3837 34.8649C30.0954 35.0992 30.636 35.964 31.1586 36.7748C35.8801 44.0901 43.2145 47.6397 45.8996 48.7208C46.0078 48.7568 46.4403 48.919 46.8728 48.919C47.2512 48.919 47.5575 48.8829 47.8279 48.7928C55.4146 46.1622 59.4513 42.8469 60.7488 41.5676C61.0371 41.2793 61.2534 41.0811 61.1993 41.0091C61.1452 40.937 60.929 40.991 60.7308 41.0451C48.1522 43.2974 37.2677 38.5226 32.402 35.8379C31.0685 35.0992 30.7622 34.7928 30.5639 34.7928C30.4918 34.7928 30.4558 34.8289 30.3837 34.8649Z" fill="#0E1B34"/>
<path d="M71.651 32.9548C66.1726 43.8017 50.7108 49.099 50.7108 49.099C55.9729 52.144 62.983 52.2341 62.983 52.2341C70.5157 47.2251 72.1556 37.8738 72.7683 33.0089C72.8403 32.4503 72.8043 32.108 72.57 32.0359C72.498 32.0179 72.4439 31.9999 72.3898 31.9999C72.1916 31.9999 72.0294 32.1981 71.651 32.9548Z" fill="#0E1B34"/>
<path d="M14.7954 35.063C15.0116 35.2432 15.354 35.4955 15.5342 35.2792C15.6244 35.1891 15.7325 35.1171 15.3901 34.4504C10.4884 25.3693 13.4979 12.5405 13.4979 12.5405C9.87571 8.19815 4.81186 6.8468 4.81186 6.8468C3.8027 22.4684 11.4976 32.1982 14.7954 35.063Z" fill="#0E1B34"/>
<path d="M49.7741 18.198C41.7368 24.9368 31.2487 27.6215 26.9778 28.3782C26.4732 28.4683 25.9506 28.5043 25.7884 28.8827C25.6262 29.2791 25.9506 29.6395 26.4191 30.0899C35.3034 38.4323 48.3685 39.153 52.6214 39.207C53.2701 39.207 53.4503 39.189 53.5584 38.9728C53.6666 38.7746 53.4864 38.5043 53.2521 38.18C48.9091 31.8917 49.9182 23.2431 50.7472 19.171C51.0355 17.7476 51.1797 17.4953 51.0175 17.4052C50.9815 17.3872 50.9454 17.3692 50.8914 17.3692C50.6211 17.3332 50.2246 17.8197 49.7741 18.198Z" fill="#0E1B34"/>
<path d="M28.0768 6.14397C27.8966 6.34217 27.9507 6.63046 28.0227 7.00884C28.3651 8.82866 28.7976 12.9548 27.7705 18.2881C26.9595 22.5764 25.9503 24.9007 25.1034 26.2701C24.743 26.8647 24.5808 27.0989 24.7249 27.2611C24.8691 27.4233 24.9772 27.4413 25.68 27.2611C29.5004 26.3782 39.6462 23.4773 45.7913 17.6034C46.1697 17.2431 46.458 16.8827 46.458 16.4503C46.458 15.8557 46.3859 15.8557 45.4128 14.9007C42.926 12.5043 37.3755 7.74758 29.1581 6.08992C28.8877 6.03587 28.6354 5.98181 28.4372 5.98181C28.3111 5.99983 28.1669 6.03587 28.0768 6.14397Z" fill="#0E1B34"/>
<path d="M8.05538 4.27022C7.44267 4.28823 7.2084 4.27022 7.19038 4.57652C7.17236 4.79274 7.38861 4.88283 7.69496 5.09904C10.1098 6.7567 15.6602 11.2252 23.7695 24.5945C23.9858 24.9369 24.0218 25.2072 24.3102 25.1891C24.4723 25.1711 24.5985 25.045 24.7967 24.3963C25.7518 21.2612 27.7702 12.8288 25.067 7.09904C25.067 7.09904 19.3184 4.2522 9.461 4.2522C8.99246 4.2522 8.52392 4.2522 8.05538 4.27022Z" fill="#0E1B34"/>
<path d="M66.9115 18.7207C65.7222 16.4684 59.1085 17.4234 50.4585 20.7387C50.4045 21.0811 50.3504 21.4594 50.2964 21.8378C57.0361 19.4054 62.082 18.7567 63.0191 20.5585C63.5056 21.4955 62.4604 23.4955 60.5682 25.5315C61.0368 25.9099 61.3431 26.3603 61.5954 26.9009C65.3618 23.7838 67.7045 20.2342 66.9115 18.7207Z" fill="#0E1B34"/>
<path d="M55.7026 27.8197C55.7026 29.4954 57.0722 30.8647 58.7481 30.8647C60.4241 30.8647 61.7936 29.4954 61.7936 27.8197C61.7936 26.144 60.4241 24.7747 58.7481 24.7747C57.0722 24.7747 55.7026 26.144 55.7026 27.8197Z" fill="#0E1B34"/>
<path d="M57.7211 28.7927C57.3606 28.4144 56.8921 28.6666 56.7119 28.7927C56.5317 28.9189 55.5406 29.6576 55.5406 29.6576L55.2522 29.8738C52.2067 32.072 48.4403 34.3963 44.2415 36.5945C32.4559 42.7567 21.7515 45.5675 20.3279 42.8648C19.3367 40.9729 23.1211 36.9189 29.5005 32.5405C29.2302 32.3423 28.9599 32.1441 28.6895 31.9459C20.418 37.4234 15.3902 42.6486 16.6156 45.009C18.2915 48.2162 30.9241 44.9369 44.8001 37.6576C48.9089 35.5135 52.6752 33.2432 55.8829 31.045C55.937 31.009 55.9911 30.9729 56.0451 30.9369C56.0812 30.9008 56.1352 30.8828 56.1893 30.8468C56.6939 30.4864 56.802 30.3963 57.5949 29.7657C57.8472 29.5855 58.0995 29.2072 57.7211 28.7927Z" fill="#0E1B34"/>
<path d="M73.8498 48.2342C73.8498 45.8558 75.3635 44.6125 77.2557 44.6125C77.8865 44.6125 78.7695 44.8107 79.22 45.1171L79.0758 45.8378C78.6073 45.5675 77.9045 45.3333 77.3278 45.3333C75.8501 45.3333 74.7689 46.2882 74.7689 48.2162C74.7689 50.1261 75.9943 50.9549 77.3999 50.9549C78.0126 50.9549 78.6614 50.8107 79.22 50.5225L79.3101 51.2252C78.7154 51.5495 78.0126 51.7116 77.3098 51.7116C75.5438 51.6936 73.8498 50.6486 73.8498 48.2342Z" fill="#0E1B34"/>
<path d="M80.4637 44.4504C80.77 44.4504 81.0043 44.6667 81.0043 44.973C81.0043 45.2793 80.788 45.5135 80.4637 45.5135C80.1393 45.5135 79.923 45.2793 79.923 44.973C79.923 44.6847 80.1393 44.4504 80.4637 44.4504ZM80.0672 46.6306H80.8781V51.6216H80.0672V46.6306Z" fill="#0E1B34"/>
<path d="M85.7614 51.3694C85.3469 51.5676 84.7882 51.6937 84.1395 51.6937C82.806 51.6937 81.6707 50.973 81.6707 49.1892C81.6707 47.3154 82.6618 46.5586 83.9233 46.5586C85.3829 46.5586 85.8695 47.4595 85.8695 48.6667C85.8695 48.7928 85.8695 48.9009 85.8515 49.009H82.4816V49.2433C82.4816 50.5946 83.2925 51.0451 84.2296 51.0451C84.7342 51.0451 85.3109 50.9009 85.6532 50.7568L85.7614 51.3694ZM85.1126 48.5045C85.1126 47.5136 84.6441 47.1532 83.9593 47.1532C83.2745 47.1532 82.6798 47.5496 82.5537 48.5045H85.1126Z" fill="#0E1B34"/>
<path d="M86.6443 46.6306H87.2931L87.4192 47.2612H87.4733C87.9779 46.7928 88.4645 46.5405 89.0952 46.5405C90.1404 46.5405 90.681 47.2613 90.681 48.3964V51.6036H89.8701V48.5045C89.8701 47.6036 89.5097 47.2072 88.897 47.2072C88.3383 47.2072 87.8157 47.5495 87.4733 47.9459V51.6036H86.6624V46.6306H86.6443Z" fill="#0E1B34"/>
<path d="M91.132 46.6306H91.9249L92.1051 45.4774H92.7358V46.6306H94.2856L94.2135 47.2432H92.7358V50.2702C92.7358 50.7207 92.88 51.0089 93.3845 51.0089C93.6368 51.0089 93.9792 50.9369 94.3577 50.7927L94.4658 51.4053C94.0153 51.6035 93.5647 51.6936 93.2043 51.6936C92.2492 51.6936 91.9249 51.1711 91.9249 50.3062V47.2432H91.132V46.6306Z" fill="#0E1B34"/>
<path d="M95.0605 45.7297L96.2138 43.8018L96.9347 44.1982L95.4389 45.9279L95.0605 45.7297ZM95.0965 46.6306H95.9075V51.6216H95.0965V46.6306Z" fill="#0E1B34"/>
<path d="M99.9981 47.2432H98.1059V51.6215H97.295V47.2432H96.5021V46.6305H97.295V46.1981C97.295 44.8107 98.196 44.4684 99.1692 44.4684C99.6737 44.4684 100.232 44.5765 100.557 44.6666L100.395 45.2612C100.052 45.1711 99.5476 45.099 99.1872 45.099C98.5745 45.099 98.0879 45.3152 98.0879 46.1801V46.6305H100.809V51.6215H99.9981V47.2432Z" fill="#0E1B34"/>
<path d="M101.62 49.2072C101.62 47.7478 102.106 46.5586 103.854 46.5586C104.323 46.5586 104.918 46.6847 105.332 46.8469L105.188 47.5136C104.863 47.3694 104.341 47.2253 103.926 47.2253C102.863 47.2253 102.449 47.946 102.449 49.1892C102.449 50.3424 102.935 51.0271 103.998 51.0271C104.449 51.0271 105.008 50.8829 105.332 50.7748L105.422 51.3694C105.008 51.5496 104.413 51.6937 103.872 51.6937C102.521 51.6937 101.62 50.8829 101.62 49.2072Z" fill="#0E1B34"/>
<path d="M105.765 49.1532C105.765 47.4955 106.575 46.5586 108.053 46.5586C109.531 46.5586 110.306 47.4595 110.306 49.1352C110.306 50.955 109.387 51.6937 108.035 51.6937C106.702 51.6937 105.765 50.919 105.765 49.1532ZM109.495 49.1352C109.495 47.6937 108.9 47.2072 108.053 47.2072C107.188 47.2072 106.593 47.7117 106.593 49.1532C106.593 50.4685 107.152 51.0631 108.035 51.0631C108.936 51.0631 109.495 50.4685 109.495 49.1352Z" fill="#0E1B34"/>
<path d="M112.522 51.6937C111.909 51.6937 111.243 51.4955 110.9 51.3153L111.008 50.7208C111.369 50.9009 112 51.0991 112.504 51.0991C113.117 51.0991 113.657 50.919 113.657 50.2523C113.657 49.1532 110.99 49.5856 110.99 47.982C110.99 47.1172 111.639 46.5586 112.81 46.5586C113.387 46.5586 114 46.7208 114.27 46.8469L114.126 47.4415C113.82 47.2973 113.261 47.1712 112.774 47.1712C112.162 47.1712 111.783 47.4235 111.783 47.928C111.783 48.955 114.45 48.5766 114.45 50.2163C114.45 51.2433 113.621 51.6937 112.522 51.6937Z" fill="#0E1B34"/>
<path d="M117.911 53.7477C118.145 53.2432 118.451 52.5945 118.866 51.6216H118.704C118.289 50.4143 117.496 48.1441 117.208 47.5134C117.118 47.2972 117.064 47.1891 116.775 47.1531V46.6306C116.829 46.6125 117.028 46.6125 117.154 46.6125C117.64 46.6125 117.802 46.7927 118.001 47.2972C118.127 47.6396 118.74 49.4053 119.19 50.7387H119.226C119.659 49.5855 120.416 47.3693 120.65 46.6306H121.497C121.1 47.8378 119.514 52.054 118.83 53.7477H117.911Z" fill="#0E1B34"/>
<path d="M126.11 45.3694H123.785V44.6847H129.282V45.3874H126.957V51.6396H126.11V45.3694Z" fill="#0E1B34"/>
<path d="M133.084 51.3694C132.67 51.5676 132.111 51.6937 131.462 51.6937C130.129 51.6937 128.993 50.973 128.993 49.1892C128.993 47.3154 130.002 46.5586 131.246 46.5586C132.706 46.5586 133.192 47.4595 133.192 48.6667C133.192 48.7928 133.192 48.9009 133.174 49.009H129.804V49.2433C129.804 50.5946 130.615 51.0451 131.552 51.0451C132.057 51.0451 132.634 50.9009 132.976 50.7568L133.084 51.3694ZM132.417 48.5045C132.417 47.5136 131.949 47.1532 131.264 47.1532C130.579 47.1532 129.984 47.5496 129.858 48.5045H132.417Z" fill="#0E1B34"/>
<path d="M133.769 49.2072C133.769 47.7478 134.255 46.5586 136.003 46.5586C136.472 46.5586 137.067 46.6847 137.481 46.8469L137.337 47.5136C137.013 47.3694 136.49 47.2253 136.075 47.2253C135.012 47.2253 134.598 47.946 134.598 49.1892C134.598 50.3424 135.084 51.0271 136.148 51.0271C136.598 51.0271 137.157 50.8829 137.481 50.7748L137.571 51.3694C137.157 51.5496 136.562 51.6937 136.021 51.6937C134.67 51.6937 133.769 50.8829 133.769 49.2072Z" fill="#0E1B34"/>
<path d="M138.275 46.6306H138.923L139.049 47.2612H139.103C139.608 46.7928 140.095 46.5405 140.725 46.5405C141.771 46.5405 142.311 47.2613 142.311 48.3964V51.6036H141.5V48.5045C141.5 47.6036 141.14 47.2072 140.527 47.2072C139.968 47.2072 139.446 47.5495 139.103 47.9459V51.6036H138.293L138.275 46.6306Z" fill="#0E1B34"/>
<path d="M143.032 49.1532C143.032 47.4955 143.843 46.5586 145.321 46.5586C146.798 46.5586 147.573 47.4595 147.573 49.1352C147.573 50.955 146.654 51.6937 145.303 51.6937C143.969 51.6937 143.032 50.919 143.032 49.1532ZM146.744 49.1352C146.744 47.6937 146.15 47.2072 145.303 47.2072C144.438 47.2072 143.843 47.7117 143.843 49.1532C143.843 50.4685 144.402 51.0631 145.285 51.0631C146.204 51.0631 146.744 50.4685 146.744 49.1352Z" fill="#0E1B34"/>
<path d="M148.384 44.5045H149.195V51.6397H148.384V44.5045Z" fill="#0E1B34"/>
<path d="M150.006 49.1531C150.006 47.4954 150.817 46.5585 152.294 46.5585C153.772 46.5585 154.547 47.4594 154.547 49.1351C154.547 50.9549 153.628 51.6936 152.276 51.6936C150.943 51.6936 150.006 50.9189 150.006 49.1531ZM153.736 49.1351C153.736 47.6937 153.141 47.2072 152.294 47.2072C151.429 47.2072 150.835 47.7117 150.835 49.1531C150.835 50.4684 151.393 51.063 152.276 51.063C153.177 51.063 153.736 50.4684 153.736 49.1351ZM151.538 45.7297L152.691 43.8018L153.412 44.1982L151.916 45.9279L151.538 45.7297Z" fill="#0E1B34"/>
<path d="M157.088 46.5584C157.881 46.5584 158.296 46.8286 158.512 47.0449H158.584C158.62 46.7386 158.692 46.5223 159.107 46.5223C159.323 46.5223 159.593 46.5764 159.719 46.6304L159.665 47.1169C159.467 47.0989 159.359 47.0989 159.251 47.0989C158.872 47.0989 158.854 47.3151 158.836 47.6575C158.908 47.8196 158.926 48.0178 158.926 48.162C158.926 49.1349 158.097 49.7115 156.944 49.7115H156.8C156.475 49.8196 155.899 50.0899 155.899 50.4863C155.899 50.7746 156.205 50.8467 156.439 50.8467H158.043C159.089 50.8467 159.665 51.2611 159.665 52.1259C159.647 53.3692 158.151 53.7295 156.998 53.7295C156.259 53.7295 154.872 53.5313 154.872 52.4683C154.872 51.8557 155.304 51.5133 155.701 51.2791V51.2431C155.214 51.0809 155.16 50.7746 155.16 50.5944C155.16 50.0539 155.701 49.6935 156.169 49.5313V49.4773C155.538 49.2791 155.178 48.8106 155.178 48.144C155.214 47.225 155.917 46.5584 157.088 46.5584ZM156.71 51.4232C156.421 51.4773 155.737 51.7836 155.737 52.3782C155.737 53.0449 156.566 53.171 157.196 53.171C157.917 53.171 158.872 52.9548 158.89 52.1259C158.89 51.6935 158.638 51.4052 158.007 51.4052H156.71V51.4232ZM157.052 49.171C157.755 49.171 158.187 48.8286 158.187 48.162C158.187 47.4773 157.773 47.0989 157.088 47.0989C156.367 47.0989 155.989 47.4953 155.989 48.18C155.989 48.6845 156.331 49.171 157.052 49.171Z" fill="#0E1B34"/>
<path d="M160.71 44.4504C161.016 44.4504 161.251 44.6667 161.251 44.973C161.251 45.2793 161.034 45.5135 160.71 45.5135C160.368 45.5135 160.169 45.2793 160.169 44.973C160.169 44.6847 160.386 44.4504 160.71 44.4504ZM160.296 46.6306H161.106V51.6216H160.296V46.6306Z" fill="#0E1B34"/>
<path d="M161.918 49.2072C161.918 47.7478 162.404 46.5586 164.152 46.5586C164.621 46.5586 165.216 46.6847 165.63 46.8469L165.486 47.5136C165.162 47.3694 164.639 47.2253 164.224 47.2253C163.161 47.2253 162.747 47.946 162.747 49.1892C162.747 50.3424 163.233 51.0271 164.297 51.0271C164.747 51.0271 165.306 50.8829 165.63 50.7748L165.72 51.3694C165.306 51.5496 164.711 51.6937 164.17 51.6937C162.819 51.6937 161.918 50.8829 161.918 49.2072Z" fill="#0E1B34"/>
<path d="M166.044 49.1532C166.044 47.4955 166.855 46.5586 168.333 46.5586C169.811 46.5586 170.586 47.4595 170.586 49.1352C170.586 50.955 169.667 51.6937 168.315 51.6937C166.982 51.6937 166.044 50.919 166.044 49.1532ZM169.775 49.1352C169.775 47.6937 169.18 47.2072 168.333 47.2072C167.468 47.2072 166.873 47.7117 166.873 49.1532C166.873 50.4685 167.432 51.0631 168.315 51.0631C169.234 51.0631 169.775 50.4685 169.775 49.1352Z" fill="#0E1B34"/>
<path d="M172.802 51.6937C172.189 51.6937 171.523 51.4955 171.18 51.3153L171.288 50.7208C171.649 50.9009 172.28 51.0991 172.784 51.0991C173.397 51.0991 173.937 50.919 173.937 50.2523C173.937 49.1532 171.27 49.5856 171.27 47.982C171.27 47.1172 171.919 46.5586 173.09 46.5586C173.667 46.5586 174.28 46.7208 174.55 46.8469L174.406 47.4415C174.1 47.2973 173.541 47.1712 173.054 47.1712C172.442 47.1712 172.063 47.4235 172.063 47.928C172.063 48.955 174.73 48.5766 174.73 50.2163C174.73 51.2433 173.919 51.6937 172.802 51.6937Z" fill="#0E1B34"/>
<path d="M73.9757 37.6215C73.9757 35.2431 75.4895 33.9999 77.3816 33.9999C78.0124 33.9999 78.8954 34.1981 79.3459 34.5044L79.2017 35.2251C78.7332 34.9548 78.0304 34.7206 77.4537 34.7206C75.976 34.7206 74.8948 35.6756 74.8948 37.6035C74.8948 39.5134 76.1202 40.3422 77.5258 40.3422C78.1385 40.3422 78.7873 40.1981 79.3459 39.9098L79.436 40.6125C78.8413 40.9368 78.1385 41.099 77.4357 41.099C75.6697 41.081 73.9757 40.0359 73.9757 37.6215Z" fill="#0E1B34"/>
<path d="M81.1122 38.5405C81.1122 36.8829 81.9232 35.9459 83.4009 35.9459C84.8786 35.9459 85.6535 36.8468 85.6535 38.5225C85.6535 40.3423 84.7344 41.0811 83.3829 41.0811C82.0493 41.0811 81.1122 40.3063 81.1122 38.5405ZM84.8426 38.5225C84.8426 37.0811 84.2479 36.5946 83.4009 36.5946C82.5359 36.5946 81.9412 37.0991 81.9412 38.5405C81.9412 39.8558 82.4998 40.4504 83.3829 40.4504C84.2839 40.4504 84.8426 39.8558 84.8426 38.5225Z" fill="#0E1B34"/>
<path d="M87.5637 33.8738H88.3746V41.0089H87.5637V33.8738Z" fill="#0E1B34"/>
<path d="M94.375 40.7568C93.9606 40.955 93.4019 41.0991 92.7532 41.0991C91.4196 41.0991 90.2843 40.3784 90.2843 38.5946C90.2843 36.7207 91.2754 35.964 92.5369 35.964C93.9966 35.964 94.4832 36.8649 94.4832 38.0721C94.4832 38.1982 94.4832 38.3063 94.4832 38.4325H91.1133V38.6667C91.1133 40.018 91.9242 40.4685 92.8613 40.4685C93.3659 40.4685 93.9425 40.3243 94.2849 40.1802L94.375 40.7568ZM93.7083 37.8919C93.7083 36.9009 93.2397 36.5225 92.5549 36.5225C91.8701 36.5225 91.2754 36.9189 91.1493 37.8919H93.7083Z" fill="#0E1B34"/>
<path d="M98.1596 35.9458C98.9525 35.9458 99.3669 36.2161 99.5832 36.4323H99.6553C99.6913 36.126 99.7634 35.9098 100.178 35.9098C100.394 35.9098 100.664 35.9638 100.791 36.0179L100.737 36.5044C100.538 36.4864 100.43 36.4864 100.322 36.4864C99.9436 36.4864 99.9256 36.7026 99.9076 37.0449C99.9797 37.2071 99.9977 37.4053 99.9977 37.5494C99.9977 38.5224 99.1687 39.099 98.0154 39.099H97.8712C97.5468 39.2071 96.9702 39.4774 96.9702 39.8738C96.9702 40.162 97.2765 40.2341 97.5108 40.2341H99.1147C100.16 40.2341 100.737 40.6485 100.737 41.5134C100.719 42.7566 99.2228 43.117 98.0694 43.117C97.3306 43.117 95.943 42.9188 95.943 41.8557C95.943 41.2431 96.3755 40.9008 96.7719 40.6666V40.6305C96.2854 40.4684 96.2313 40.162 96.2313 39.9819C96.2313 39.4413 96.7719 39.081 97.2405 38.9188V38.8647C96.6098 38.6665 96.2493 38.1981 96.2493 37.5314C96.2854 36.6125 96.9882 35.9458 98.1596 35.9458ZM97.7631 40.8107C97.4748 40.8647 96.79 41.1711 96.79 41.7657C96.79 42.4323 97.6189 42.5584 98.2497 42.5584C98.9705 42.5584 99.9436 42.3422 99.9436 41.5134C99.9436 41.081 99.6913 40.7927 99.0606 40.7927H97.7631V40.8107ZM98.1055 38.5584C98.8083 38.5584 99.2408 38.2161 99.2408 37.5494C99.2408 36.8647 98.8263 36.4864 98.1415 36.4864C97.4207 36.4864 97.0423 36.8828 97.0423 37.5674C97.0603 38.072 97.4027 38.5584 98.1055 38.5584Z" fill="#0E1B34"/>
<path d="M102.881 33.8378C103.188 33.8378 103.422 34.054 103.422 34.3603C103.422 34.6666 103.206 34.9008 102.881 34.9008C102.557 34.9008 102.341 34.6666 102.341 34.3603C102.323 34.072 102.539 33.8378 102.881 33.8378ZM102.467 36.0179H103.278V41.0089H102.467V36.0179Z" fill="#0E1B34"/>
<path d="M105.17 38.5405C105.17 36.8829 105.981 35.9459 107.459 35.9459C108.936 35.9459 109.711 36.8468 109.711 38.5225C109.711 40.3423 108.792 41.0811 107.441 41.0811C106.107 41.0811 105.17 40.3063 105.17 38.5405ZM108.882 38.5225C108.882 37.0811 108.288 36.5946 107.441 36.5946C106.576 36.5946 105.981 37.0991 105.981 38.5405C105.981 39.8558 106.54 40.4504 107.423 40.4504C108.342 40.4504 108.882 39.8558 108.882 38.5225Z" fill="#0E1B34"/>
<path d="M113.009 41.0811C112.396 41.0811 111.729 40.8829 111.387 40.7027L111.495 40.1081C111.856 40.2883 112.486 40.4865 112.991 40.4865C113.604 40.4865 114.144 40.3063 114.144 39.6396C114.144 38.5405 111.477 38.9549 111.477 37.3693C111.477 36.5045 112.126 35.9459 113.297 35.9459C113.874 35.9459 114.487 36.1081 114.757 36.2342L114.613 36.8288C114.306 36.6847 113.748 36.5585 113.279 36.5585C112.667 36.5585 112.27 36.8108 112.27 37.3153C112.27 38.3423 114.937 37.9639 114.937 39.6036C114.955 40.6126 114.126 41.0811 113.009 41.0811Z" fill="#0E1B34"/>
<path d="M119.677 38.5945C119.677 36.8648 120.524 35.9458 121.947 35.9458C122.452 35.9458 122.866 36.054 123.119 36.144V33.8738H123.93V41.0089H123.335L123.191 40.3783H123.137C122.794 40.7026 122.344 41.099 121.641 41.099C120.325 41.081 119.677 39.9098 119.677 38.5945ZM123.119 39.6936V36.8107C122.74 36.6305 122.344 36.5585 122.037 36.5585C120.902 36.5585 120.506 37.4774 120.506 38.5585C120.506 39.6936 121.01 40.4323 121.713 40.4323C122.272 40.4323 122.776 40.108 123.119 39.6936Z" fill="#0E1B34"/>
<path d="M129.912 40.7568C129.498 40.955 128.939 41.0991 128.29 41.0991C126.957 41.0991 125.822 40.3784 125.822 38.5946C125.822 36.7207 126.813 35.964 128.074 35.964C129.534 35.964 130.02 36.8649 130.02 38.0721C130.02 38.1982 130.02 38.3063 130.002 38.4325H126.632V38.6667C126.632 40.018 127.443 40.4685 128.38 40.4685C128.885 40.4685 129.462 40.3243 129.804 40.1802L129.912 40.7568ZM129.245 37.8919C129.245 36.9009 128.777 36.5225 128.092 36.5225C127.407 36.5225 126.813 36.9189 126.687 37.8919H129.245Z" fill="#0E1B34"/>
<path d="M135.03 34.072H138.544V34.7747H135.877V37.1891H137.932L137.842 37.8558H135.877V40.3423H138.616V41.045H135.03V34.072Z" fill="#0E1B34"/>
<path d="M141.896 41.0811C141.284 41.0811 140.617 40.8829 140.275 40.7027L140.383 40.1081C140.743 40.2883 141.374 40.4865 141.878 40.4865C142.491 40.4865 143.032 40.3063 143.032 39.6396C143.032 38.5405 140.365 38.9549 140.365 37.3693C140.365 36.5045 141.013 35.9459 142.185 35.9459C142.761 35.9459 143.374 36.1081 143.645 36.2342L143.5 36.8288C143.194 36.6847 142.635 36.5585 142.167 36.5585C141.554 36.5585 141.158 36.8108 141.158 37.3153C141.158 38.3423 143.825 37.9639 143.825 39.6036C143.843 40.6126 143.014 41.0811 141.896 41.0811Z" fill="#0E1B34"/>
<path d="M145.248 36.0179H146.041L146.221 34.8647H146.852V36.0179H148.402L148.33 36.6305H146.852V39.6575C146.852 40.108 146.996 40.3963 147.501 40.3963C147.753 40.3963 148.096 40.3242 148.474 40.1801L148.582 40.7927C148.132 40.9909 147.681 41.081 147.321 41.081C146.366 41.081 146.041 40.5584 146.041 39.6936V36.6305H145.248V36.0179Z" fill="#0E1B34"/>
<path d="M154.277 41.0089H153.682L153.52 40.4143L153.448 40.3963C152.943 40.8468 152.439 41.081 151.862 41.081C150.835 41.081 150.204 40.2882 150.204 39.2612V36.0179H151.015V39.117C151.015 39.9098 151.411 40.4324 152.078 40.4324C152.583 40.4324 153.141 40.072 153.466 39.7297V36.0179H154.277V41.0089Z" fill="#0E1B34"/>
<path d="M156.151 38.5945C156.151 36.8648 156.998 35.9458 158.421 35.9458C158.926 35.9458 159.34 36.054 159.593 36.144V33.8738H160.403V41.0089H159.809L159.665 40.3783H159.611C159.268 40.7026 158.818 41.099 158.115 41.099C156.781 41.081 156.151 39.9098 156.151 38.5945ZM159.575 39.6936V36.8107C159.196 36.6305 158.8 36.5585 158.493 36.5585C157.358 36.5585 156.962 37.4774 156.962 38.5585C156.962 39.6936 157.466 40.4323 158.169 40.4323C158.746 40.4323 159.232 40.108 159.575 39.6936Z" fill="#0E1B34"/>
<path d="M162.872 33.8378C163.179 33.8378 163.413 34.054 163.413 34.3603C163.413 34.6666 163.197 34.9008 162.872 34.9008C162.548 34.9008 162.332 34.6666 162.332 34.3603C162.314 34.072 162.53 33.8378 162.872 33.8378ZM162.458 36.0179H163.269V41.0089H162.458V36.0179Z" fill="#0E1B34"/>
<path d="M165.161 38.5405C165.161 36.8829 165.972 35.9459 167.45 35.9459C168.928 35.9459 169.703 36.8468 169.703 38.5225C169.703 40.3423 168.783 41.0811 167.432 41.0811C166.098 41.0811 165.161 40.3063 165.161 38.5405ZM168.892 38.5225C168.892 37.0811 168.297 36.5946 167.45 36.5946C166.585 36.5946 165.99 37.0991 165.99 38.5405C165.99 39.8558 166.549 40.4504 167.432 40.4504C168.333 40.4504 168.892 39.8558 168.892 38.5225Z" fill="#0E1B34"/>
<path d="M173 41.0811C172.388 41.0811 171.721 40.8829 171.378 40.7027L171.487 40.1081C171.847 40.2883 172.478 40.4865 172.982 40.4865C173.595 40.4865 174.136 40.3063 174.136 39.6396C174.136 38.5405 171.469 38.9549 171.469 37.3693C171.469 36.5045 172.117 35.9459 173.289 35.9459C173.865 35.9459 174.478 36.1081 174.748 36.2342L174.604 36.8288C174.298 36.6847 173.739 36.5585 173.271 36.5585C172.658 36.5585 172.261 36.8108 172.261 37.3153C172.261 38.3423 174.929 37.9639 174.929 39.6036C174.947 40.6126 174.118 41.0811 173 41.0811Z" fill="#0E1B34"/>
</svg>
