<svg width="100" height="58" viewBox="0 0 100 58" fill="none" xmlns="http://www.w3.org/2000/svg">
<path fill-rule="evenodd" clip-rule="evenodd" d="M84.281 54.0125H87.2586V51.475H91.9453C92.4113 51.475 92.722 51.5786 92.9033 51.7598C93.0845 51.9669 93.1622 52.3294 93.1622 52.8214V53.9866H96.1399V52.3294C96.1399 51.5527 95.9586 51.0089 95.6479 50.7241C95.3372 50.4393 94.9488 50.258 94.5086 50.1803C95.1819 49.9991 95.622 49.7143 95.8551 49.3259C96.0881 48.9375 96.1917 48.4196 96.1658 47.7723V47.1509C96.1917 46.2705 95.9845 45.5714 95.5703 45.0536C95.156 44.5357 94.3792 44.2768 93.2658 44.2768H84.281V54.0125ZM87.2586 46.6848H91.9194C92.3854 46.6848 92.722 46.7366 92.9551 46.8661C93.1881 46.9955 93.2917 47.2803 93.2917 47.6946V48.0053C93.2917 48.3419 93.214 48.6009 93.0328 48.7821C92.8774 48.9375 92.5667 49.041 92.1783 49.041H87.2586V46.6848ZM76.539 46.5294L78.481 50.1803H74.6747L76.539 46.5294ZM69.3408 54.0125H72.681L73.5613 52.3036H79.5944L80.5265 54.0125H83.8408L78.481 44.2768H74.597L69.3408 54.0125ZM52.9765 54.0125H55.8765V47.0214L59.8122 54.0125H62.039L65.9488 47.0214L65.9747 54.0125H68.8747V44.2768H64.2917L60.9256 50.5428L57.5595 44.2768H52.9765V54.0125ZM41.7131 54.0125H52.5104V51.6821H44.6908V50.1286H51.9408V48.1089H44.6908V46.5553H52.3551V44.2768H41.7131V54.0125ZM29.906 46.6848H34.1006V53.9866H37.0783V46.6848H41.2729V44.2768H29.906V46.6848ZM19.1604 48.6268C19.1345 48.0053 19.264 47.5393 19.497 47.2027C19.756 46.8661 20.2479 46.6848 21.0247 46.6848H24.5202C25.297 46.6848 25.789 46.8661 26.0479 47.2027C26.3069 47.5393 26.4104 48.0312 26.3845 48.6268V49.6625C26.4104 50.3616 26.3069 50.8536 26.0479 51.1643C25.8149 51.475 25.3488 51.6044 24.6756 51.6044H20.8694C20.1702 51.6044 19.7301 51.475 19.497 51.1643C19.264 50.8536 19.1604 50.3616 19.1604 49.6625V48.6268ZM16.1051 50.5946C16.1051 51.5268 16.2863 52.2518 16.6229 52.7696C16.9595 53.2875 17.4515 53.6241 18.0988 53.8312C18.7461 54.0384 19.497 54.1161 20.4033 54.1161H25.1935C26.0997 54.1161 26.8506 54.0384 27.4979 53.8312C28.1452 53.6241 28.6372 53.2875 28.9738 52.7696C29.3104 52.2518 29.4917 51.5268 29.4917 50.5946V47.6946C29.4917 46.7625 29.3104 46.0375 28.9738 45.5196C28.6372 45.0018 28.1452 44.6652 27.4979 44.458C26.8506 44.2509 26.0997 44.1732 25.1935 44.1732H20.3774C19.4711 44.1732 18.7202 44.2509 18.0729 44.458C17.4256 44.6652 16.9595 45.0018 16.597 45.5196C16.2604 46.0375 16.0792 46.7625 16.0792 47.6946V50.5946H16.1051ZM2.97739 50.5946C2.97739 51.5268 3.15864 52.2518 3.49525 52.7696C3.83185 53.2875 4.32382 53.6241 4.97114 53.8312C5.61846 54.0384 6.36935 54.1161 7.2756 54.1161H12.0917C13.0756 54.1161 13.8265 53.9866 14.3444 53.7277C14.8622 53.4687 15.2247 53.1321 15.406 52.6919C15.5872 52.2518 15.6908 51.7598 15.6649 51.2161V50.3098H12.6613C12.6613 50.9053 12.5577 51.2678 12.2988 51.4232C12.0399 51.5786 11.5738 51.6562 10.9265 51.6303H7.74168C7.04257 51.6303 6.60239 51.5009 6.36935 51.1902C6.13632 50.8794 6.03275 50.3875 6.03275 49.6884V48.6527C6.00685 48.0312 6.13632 47.5652 6.36935 47.2285C6.62828 46.8919 7.12025 46.7107 7.89703 46.7107H11.1336C11.5738 46.7107 11.9104 46.7625 12.1694 46.8919C12.4024 47.0214 12.5319 47.2544 12.5319 47.5911V47.85H15.5354C15.5613 46.9437 15.4577 46.2187 15.2506 45.675C15.0435 45.1312 14.5774 44.7428 13.9042 44.5357C13.2051 44.3027 12.1694 44.1991 10.7711 44.1991H7.24971C6.34346 44.1991 5.59257 44.2768 4.94525 44.4839C4.29792 44.6911 3.83185 45.0277 3.46935 45.5455C3.13275 46.0634 2.9515 46.7884 2.9515 47.7205V50.5946H2.97739ZM62.4015 31.3044V32.8062C60.7961 33.6348 59.0354 34.2303 56.8345 34.5669C50.1801 35.5768 46.6586 32.8062 40.0042 33.8161C38.7095 33.9973 37.5185 34.6187 36.3792 35.2661V33.8161C38.1399 32.4955 39.7453 31.6928 42.4122 31.2786C49.0667 30.2687 52.5881 33.0393 59.2426 32.0294C60.3819 31.8741 61.4435 31.6152 62.4015 31.3044ZM37.3113 12.0402C37.3372 11.5741 37.4667 11.2375 37.5961 10.9786C37.8033 10.5643 38.839 9.19195 38.839 9.19195C39.1756 8.85534 39.5899 7.97498 41.5578 7.9232H61.4176V10.0982H42.2569C41.4801 10.0982 40.8328 10.7455 40.8328 11.5223V24.3652C40.8328 25.1419 41.4542 25.7893 42.2569 25.7893H61.4176C61.1069 27.1098 60.2006 28.3786 58.9836 28.8964H41.4283C39.1497 28.8964 37.3113 26.8768 37.3113 24.5982V12.0402ZM42.1792 11.4964H61.4953L59.3461 14.6036H52.9247V24.4946H49.8176V14.5777H42.1533V11.4964H42.1792ZM35.0069 5.23034C34.7738 5.23034 34.5926 5.41159 34.5926 5.64463V37.1044C34.5926 37.3375 34.7738 37.5187 35.0069 37.5187H63.722C63.9551 37.5187 64.1363 37.3375 64.1363 37.1044V5.64463C64.1363 5.41159 63.9551 5.23034 63.722 5.23034H35.0069ZM35.0069 3.88391H63.722C64.6801 3.88391 65.4828 4.6607 65.4828 5.64463V37.1044C65.4828 38.0625 64.706 38.8652 63.722 38.8652H35.0069C34.0488 38.8652 33.2461 38.0884 33.2461 37.1044V5.64463C33.2461 4.68659 34.0488 3.88391 35.0069 3.88391Z" fill="#0E1B34"/>
</svg>
