<svg width="240" height="78" viewBox="0 0 240 78" fill="none" xmlns="http://www.w3.org/2000/svg">
<path d="M95.7704 16.77V60.6667H89.75V16.77H95.7704ZM119.465 16.77L102.995 36.8334L120.712 60.6667H113.316L96.1145 37.2234L112.671 16.77H119.465Z" fill="#0E1B34"/>
<path d="M132.495 17.7233C133.269 18.5033 133.613 19.4567 133.613 20.5833C133.613 21.71 133.226 22.6633 132.495 23.4C131.721 24.1367 130.732 24.5267 129.528 24.5267C128.367 24.5267 127.377 24.1367 126.603 23.4C125.829 22.6633 125.485 21.71 125.485 20.5833C125.485 19.4567 125.872 18.46 126.603 17.7233C127.377 16.9433 128.324 16.5967 129.528 16.5967C130.732 16.5967 131.721 16.9867 132.495 17.7233ZM132.495 29.2067V60.6667H126.689V29.2067H132.495Z" fill="#0E1B34"/>
<path d="M167.93 31.0267C170.51 34.19 171.8 38.4367 171.8 43.81C171.8 47.2767 171.198 50.3533 170.037 52.9967C168.876 55.64 167.156 57.72 164.92 59.1933C162.683 60.6667 160.017 61.4033 156.964 61.4033C152.277 61.4033 148.621 59.8433 146.041 56.68C143.418 53.5167 142.128 49.27 142.128 43.8967C142.128 40.43 142.73 37.3533 143.891 34.71C145.052 32.0667 146.772 29.9867 149.008 28.5133C151.245 27.04 153.911 26.3033 157.05 26.3033C161.694 26.3033 165.35 27.8633 167.93 31.0267ZM148.363 43.8967C148.363 52.4333 151.245 56.68 156.964 56.68C162.683 56.68 165.565 52.39 165.565 43.81C165.565 35.2733 162.726 31.0267 157.05 31.0267C151.245 31.0267 148.363 35.3167 148.363 43.8967Z" fill="#0E1B34"/>
<path d="M199.193 26.6933L198.118 32.4133C197.086 32.1533 196.14 32.0233 195.194 32.0233C193.129 32.0233 191.452 32.8033 190.205 34.32C188.958 35.8367 187.969 38.22 187.238 41.47V60.6234H181.433V27.0833H186.421L186.98 33.8867C187.883 31.3733 189.087 29.51 190.592 28.21C192.097 26.9533 193.86 26.3033 195.882 26.3033C197.086 26.3033 198.161 26.4333 199.193 26.6933Z" fill="#0E1B34"/>
<path d="M230.584 60.6232H225.596L225.166 55.3799C223.919 57.4599 222.457 58.9766 220.823 59.9299C219.189 60.8832 217.168 61.3599 214.802 61.3599C211.878 61.3599 209.599 60.4499 207.965 58.6732C206.331 56.8966 205.514 54.3832 205.514 51.0899V27.0833H211.319V50.5266C211.319 52.8232 211.706 54.4266 212.523 55.3799C213.34 56.3332 214.63 56.8099 216.436 56.8099C219.662 56.8099 222.457 54.8599 224.779 51.0032V27.0833H230.584V60.6232Z" fill="#0E1B34"/>
<path d="M42.6159 72.7235C61.0989 72.7235 76.0823 57.6249 76.0823 39C76.0823 20.375 61.0989 5.27649 42.6159 5.27649C24.1329 5.27649 9.14941 20.375 9.14941 39C9.14941 57.6249 24.1329 72.7235 42.6159 72.7235Z" stroke="#0E1B34" stroke-miterlimit="10"/>
<path d="M55.5389 38.5848C55.5904 27.5858 60.1213 23.3315 60.5846 21.8788C61.4599 18.9733 59.1945 17.2612 57.1865 17.2612H27.9935C25.9855 17.2612 24.3379 18.9215 24.3379 20.9449V56.2767C24.3379 58.3001 25.9855 59.9603 27.9935 59.9603H57.135C59.143 59.9603 60.7906 58.0926 60.7906 56.2767C60.8421 53.8382 55.4874 50.2584 55.5389 38.5848ZM36.7977 54.1495C36.7977 54.824 36.2314 55.3947 35.562 55.3947H32.9362C32.2669 55.3947 31.7005 54.824 31.7005 54.1495V27.482C31.7005 26.8076 32.2154 26.2369 32.9362 26.2369H35.562C36.2314 26.2369 36.7977 26.8076 36.7977 27.482V54.1495ZM55.1785 55.3428C55.1785 55.3428 51.1111 55.3428 50.9566 55.3428C50.4932 55.3428 50.0298 55.0315 49.5664 54.2014C49.5664 54.2014 38.7027 39.415 38.5998 39.3631L38.4968 39.3112C37.8274 38.2736 38.3938 37.3916 38.8572 36.8727L51.1625 20.7373C51.5744 20.2185 52.3467 20.1148 52.8616 20.5817L52.9646 20.6336C53.4794 21.0486 53.5824 21.8269 53.1705 22.3457L43.0791 35.5238C43.0791 35.5757 42.6157 36.0426 42.6157 36.6652C42.6157 36.9765 42.7187 37.3916 43.0791 37.7547L55.1785 53.7864C55.1785 53.7864 56.1568 55.1353 55.1785 55.3428Z" fill="#0E1B34"/>
</svg>
