<svg width="100" height="100" viewBox="0 0 100 100" fill="none" xmlns="http://www.w3.org/2000/svg">
<path d="M49.9588 99.0755C77.1303 99.0755 99.1572 77.0647 99.1572 49.913C99.1572 22.7613 77.1303 0.750549 49.9588 0.750549C22.7872 0.750549 0.760254 22.7613 0.760254 49.913C0.760254 77.0647 22.7872 99.0755 49.9588 99.0755Z" stroke="#0E1B34" stroke-miterlimit="10"/>
<path d="M69.8216 49.892V49.8922C69.7753 59.0676 71.8696 65.0765 73.9857 69.272C74.7775 70.8418 75.5757 72.1629 76.2514 73.281C76.473 73.6477 76.6814 73.9927 76.8721 74.3174C77.6643 75.6666 78.108 76.6052 78.1114 77.3914C78.0574 78.7678 77.4872 80.0737 76.5137 81.0496C75.5403 82.0254 74.2352 82.5995 72.8577 82.6579H27.0679C25.6714 82.6579 24.3319 82.104 23.3437 81.1181C22.3556 80.1323 21.7994 78.7951 21.7971 77.4V22.3994C21.8041 21.0084 22.3624 19.6769 23.3499 18.6963C24.3377 17.7155 25.6744 17.1659 27.0671 17.1682H27.0679H72.8681C74.3179 17.1682 75.8646 17.7913 76.8813 18.9164C77.879 20.0206 78.3947 21.6378 77.7576 23.7259L77.7573 23.727C77.6913 23.9449 77.535 24.2496 77.2743 24.6812C77.1006 24.9688 76.8949 25.29 76.6597 25.6573C76.5466 25.834 76.4266 26.0213 76.3001 26.2206C75.5278 27.4378 74.5553 29.0363 73.6013 31.1065C71.6913 35.2514 69.8678 41.2598 69.8216 49.892ZM78.2358 23.8718C79.6099 19.3684 76.0283 16.6682 72.8681 16.6682H27.0679L78.2358 23.8718ZM41.3904 74.0665L41.3904 74.0665L32.9762 32.5949H32.4762V32.5961L32.4761 74.0595L32.4762 74.0618C32.4791 74.6964 32.7311 75.3044 33.1779 75.7551C33.6247 76.2059 34.2305 76.4634 34.8651 76.4725L34.8651 76.4725H34.8723L38.9576 76.4725L38.96 76.4725C39.5995 76.4696 40.2125 76.2159 40.667 75.766C41.1215 75.3162 41.3813 74.7059 41.3904 74.0665ZM69.7079 76.4725H69.7599L69.8108 76.4618C70.34 76.3505 70.7091 76.0554 70.8479 75.6045C70.9694 75.2101 70.8804 74.795 70.7725 74.4821C70.6594 74.1546 70.4939 73.8504 70.3631 73.6353C70.2967 73.526 70.2367 73.4355 70.1928 73.3718C70.1708 73.3398 70.1528 73.3143 70.1398 73.2963L70.1242 73.2749L70.1196 73.2686L70.1181 73.2666L70.1175 73.2659L70.1173 73.2656C70.1172 73.2654 70.1171 73.2653 69.7171 73.5651L70.1171 73.2653L70.1149 73.2624L51.1445 48.3288L51.1216 48.2986L51.0943 48.2723C50.7328 47.9224 50.5191 47.4479 50.4962 46.9462C50.5388 46.3883 50.7591 45.8584 51.1251 45.4342L51.1342 45.4236L51.1427 45.4126L66.9621 24.8726L66.9627 24.8717C67.3485 24.3687 67.5233 23.7354 67.4502 23.1058C67.3771 22.4762 67.0618 21.8999 66.5711 21.4985L66.5226 21.4589L66.4658 21.4324L66.3828 21.3937C66.1513 21.2133 65.8883 21.077 65.607 20.9918C65.3041 20.9001 64.986 20.8696 64.6712 20.9019C64.3564 20.9342 64.0511 21.0288 63.7732 21.1801C63.4953 21.3314 63.2502 21.5365 63.0523 21.7833L63.0522 21.7833L63.0462 21.791L43.7023 46.9142C43.702 46.9147 43.7017 46.9151 43.7013 46.9155C43.3716 47.3378 42.9222 47.954 42.7108 48.7C42.4914 49.4743 42.5342 50.3682 43.1481 51.2964L43.2219 51.408L43.3417 51.4678L43.367 51.4805C43.4012 51.5258 43.4478 51.5877 43.5061 51.6655C43.6373 51.8405 43.8265 52.0937 44.0656 52.4143C44.5436 53.0552 45.2202 53.964 46.0289 55.0512C47.6463 57.2256 49.7916 60.1128 51.9333 62.9961C54.075 65.8793 56.213 68.7586 57.8156 70.917L59.7514 73.5245L60.2935 74.2547L60.4363 74.4471L60.4703 74.4929C61.2437 75.7854 62.0846 76.4725 63.0577 76.4725H69.7079Z" fill="#0E1B34" stroke="#FDFFFC"/>
</svg>
