<?xml version="1.0" encoding="utf-8"?>
<!-- Generator: Adobe Illustrator 23.0.1, SVG Export Plug-In . SVG Version: 6.00 Build 0)  -->
<svg version="1.1" id="Layer_1" xmlns="http://www.w3.org/2000/svg" xmlns:xlink="http://www.w3.org/1999/xlink" x="0px" y="0px"
	 viewBox="0 0 545.2 230.7" style="enable-background:new 0 0 545.2 230.7;" xml:space="preserve">
<style type="text/css">
	.st0{fill:#1E76BD;}
	.st1{fill:#329BD6;}
	.st2{fill:#B73393;}
	.st3{fill:#78C143;}
</style>
<g>
	<g>
		<path class="st0" d="M21.5,206.1h62.3c4.1,0,9-0.1,14.8-0.4c11.1-0.6,16.7-4.8,16.7-12.5c0-4.4-2.2-9.7-6.6-15.9
			c-1.8-2.7-6.3-8.2-13.4-16.7c-7.3-9-12.2-16-14.7-20.9c-2.5-5.2-3.8-10.8-3.8-16.8c0-6.6,1.4-13.1,4.1-19.4
			c2.8-6.3,6.7-12.2,11.8-17.7c5.3-5.5,11.5-10.4,18.7-14.7c14.4-8.5,28.3-12.8,41.6-12.8c6.5,0,12.1,1,16.7,3
			c4.7,2.1,8.3,5,10.9,8.6c2.5,3.8,3.8,8.1,3.8,13c0,4.7-1.3,10.4-4,17.3c-2.3,5.7-5,11.5-8,17.5l-1.9,3.8c-2,3.9-3.8,6.5-5.3,7.8
			c-1.6,1.3-3.7,2-6.3,2c-3,0-5.5-1-7.4-2.9c-2-1.9-3-4.1-3-6.6c0-1.8,0.5-3.9,1.4-6.1l2.1-4.6l3.6-8.3c2.3-5.3,4-9.3,4.9-11.8
			c0.8-2.2,1.1-4.1,1.1-5.6c0-4.3-2.8-6.5-8.5-6.5c-5.3,0-11.6,1.5-18.9,4.6c-7.8,3.3-14.1,7-18.9,11.2
			c-10.1,8.3-15.2,16.8-15.2,25.7c0,3.3,0.9,6.6,2.8,10c1.8,3.6,5.1,8.2,9.9,13.8c7.4,8.9,12.7,15.6,15.9,20.2
			c3.5,5.2,6,9.8,7.4,13.9c1.5,4.3,2.3,8.8,2.3,13.4c0,6.9-1.5,13-4.4,18.2c-2.9,5.3-7.3,9.4-13.2,12.5c-2.8,1.6-5.6,2.7-8.3,3.4
			c-2.7,0.7-6,1.2-9.9,1.5c-3.7,0.3-9.1,0.5-16.3,0.5h-2.5H19c-6,0-10.1-0.6-12.3-1.9c-3.1-1.8-4.6-4.6-4.6-8.1
			c0-4.7,2.1-8.1,6.4-10.1C10.8,206.6,15.1,206.1,21.5,206.1z"/>
		<path class="st0" d="M539.3,134.4c-2.6-5.4-6.4-9.5-11.2-12.5c-4.9-2.8-10.7-4.2-17.5-4.2c-7.3,0-14.4,2-21.3,5.9
			c-7,3.9-13.4,9.5-18.9,16.7c-5.5,7-9.8,15-12.9,23.8c-2.7,7.6-4.2,15.2-4.6,22.9c-15.8,10.8-26.1,16.2-30.9,16.2
			c-1.8,0-3.3-0.9-4.7-2.6c-1.3-1.6-2.7-4.6-4.4-9.1c-3-8.4-4.9-17.5-5.7-27.3l1.3-0.9c6.4-4.8,11.1-8.1,14.2-9.8l12.6-7.6l9-5.6
			c4.3-2.4,7.2-4.3,8.8-5.9c1.3-1.3,1.9-3.2,1.9-5.7c0-2-0.4-3.7-1.3-5.3c-1.2-1.8-2.5-3.1-4-4.1c-1.6-1-3.3-1.5-5.1-1.5
			c-3.9,0-11.8,3.5-23.5,10.6c-13.1,7.9-22.9,14.6-29.4,20.1l31.4-67.4c2.6-5.6,4-9.5,4-11.9c0-3.2-1-5.8-3.1-7.6
			c-2.2-2-4.9-2.9-8.1-2.9c-3.4,0-6.1,0.9-7.9,2.8c-2,2-4.4,6-7.3,12.2l-52.3,112.2c-0.4,0.2-0.8,0.4-1.1,0.7
			c-10.1,6-20.1,10.8-30,14.4c-10.4,3.7-18.6,5.6-24.7,5.6c-5,0-7.5-1.8-7.5-5.4c0-2.4,1.2-4.7,3.7-6.8c2.4-2,6.3-4.2,11.6-6.6
			l13.2-5.9c1.8-0.8,4.8-2.2,9.2-4.1c3.5-1.5,6.1-3.1,7.6-5c1.5-1.8,2.2-3.9,2.2-6.5c0-2.8-1-5.3-3.1-7.3c-2-2.1-4.4-3.1-7-3.1
			c-3.2,0-9.8,2.3-19.8,7c-0.9-2.2-1.3-4.1-1.3-5.6c0-2.5,0.9-4.6,2.8-6.5c1.8-1.9,4.8-3.8,9.1-5.7l10.1-4.4
			c7.3-3.1,12.1-5.4,14.4-6.8c2.7-2.1,4.1-4.7,4.1-7.9c0-3.1-1-5.6-3.1-7.5c-2.2-2-4.9-2.9-7.9-2.9c-2,0-5.7,0.9-10.9,2.7
			c-6.1,2.2-11.5,4.5-16.2,6.9c-17.2,8.5-25.8,19.4-25.8,32.6c0,5,1.4,10,4.1,15.1c-6.8,3.6-12.1,7.6-15.9,12
			c-1.5,1-3.2,2.3-5.3,3.9c-8.9,6.7-14.5,10.7-16.9,12c-3.3,2-6.1,3.1-8.2,3.1c-3.4,0-5.1-1.8-5.1-5.3c0-2.1,1.2-5.5,3.7-10.3
			c0.3-0.6,0.6-1.1,0.8-1.6c0.2-0.5,0.5-1,0.8-1.5c0.3-0.5,0.5-1,0.7-1.5c0.3-0.5,0.6-1.2,1-2c0.4-0.9,0.7-1.7,1-2.4l4.8-10.1
			c2.5-5.6,3.8-9.5,3.8-11.9c0-2.7-1-5-3.1-6.9c-2.1-1.8-4.6-2.6-7.8-2.6c-3.5,0-6.5,1.2-8.8,3.5c-2.5,2.3-5.1,6.6-7.9,12.6
			l-4.6,9.7c-0.4,0.5-1.9,3.8-4.4,9.8l-1.3,3.2c-5.4,6.3-9.9,10.8-13.6,13.6c-3.9,2.8-7.6,4.3-11,4.3c-2.5,0-4.5-0.9-5.7-2.8
			c-1.5-1.8-2.2-4.2-2.2-7.2c0-5.6,2.4-12,7.2-19.1c4.8-7.1,11.1-13.6,18.9-19.2c6.4-4.7,13-8.5,19.8-11.5
			c7.1-2.9,15.1-5.2,23.8-6.8c5.7-1.1,9.6-2.5,11.7-4.1c2.2-1.6,3.2-4,3.2-7.3c0-7-4.5-10.6-13.4-10.6c-3.9,0-9,0.7-15.3,2
			c-5.9,1.3-11.9,3.2-18.2,5.7c-6.2,2.5-11.7,5.1-16.5,7.9c-14.1,8-25.4,18.2-33.9,30.4C156,174,151.7,186,151.7,198
			c0,9.1,2.5,16.3,7.6,21.7c5,5.5,11.8,8.2,20.4,8.2c5.1,0,9.7-0.9,14-2.7c4.1-1.8,9.4-5.1,16-10.1c1.5,8.5,7,12.8,16.6,12.8
			c6.1,0,12-1.2,17.9-3.7c4.9-1.9,10.8-5.2,17.8-9.7c1.3,2.5,3.2,4.7,5.6,6.6c5.4,4.5,12.9,6.8,22.5,6.8c8.1,0,16.5-1.2,25.1-3.5
			c6-1.6,12.7-4,20.1-7.2c0,0,0,0,0,0c0,3.2,1.1,5.8,3.2,7.6c2.1,2.1,4.7,3.1,7.9,3.1c3.3,0,6-1,8.1-3.1c2.1-2,4.5-6,7.2-11.9
			l11.6-24.7l0.4-0.4c4.4-3.4,8.5-6.3,12.2-8.7c1.7,12.6,4.4,23.6,8.1,33c2.2,5.7,4.9,9.7,8.4,12c3.3,2.4,7.6,3.7,12.9,3.7
			c5.2,0,10.6-1.2,16.3-3.5c6-2.2,13.2-6.1,21.7-11.4c1.3-0.8,2.5-1.6,3.7-2.3c1.3,2.6,2.9,5,4.8,7.2c6.1,6.8,14,10.1,23.8,10.1
			c9.6,0,18.9-3.5,27.9-10.4c8.9-6.9,16.1-16,21.6-27.6c5.4-11.3,8.1-23.3,8.1-35.8C543.1,146.5,541.8,140,539.3,134.4z
			 M509.6,183.6c-6.8,13.6-13.6,20.4-20.3,20.4c-3.1,0-5.7-1.2-7.6-3.5c-2-2.2-2.9-5.4-2.9-9.4c0-7.4,2.3-16.5,6.9-27.2
			c3.5-7.7,7.1-13.5,10.9-17.5c3.7-3.8,7.5-5.7,11.3-5.7c3.2,0,5.7,1.1,7.3,3.4c1.7,2.3,2.5,5.5,2.5,9.8
			C517.7,163,515,172.9,509.6,183.6z"/>
	</g>
	<g>
		<path class="st1" d="M85.7,25.3c0-8.5-6.8-15.5-15.4-15.5c-8.5,0-15.5,6.9-15.5,15.4c0,8.5,6.8,15.5,15.4,15.5
			C78.7,40.7,85.7,33.8,85.7,25.3z"/>
	</g>
	<g>
		<path class="st2" d="M161.9,18.2c0-8.5-6.9-15.4-15.4-15.4c-8.5,0-15.4,6.9-15.4,15.4c0,8.5,6.9,15.4,15.4,15.4
			C155,33.6,161.9,26.7,161.9,18.2z"/>
	</g>
	<g>
		<path class="st3" d="M38.3,79.3c-8.5,0.1-15.4,7-15.3,15.6c0.1,8.5,7,15.4,15.6,15.3c8.5-0.1,15.4-7.1,15.3-15.6
			C53.8,86.1,46.8,79.3,38.3,79.3z"/>
	</g>
</g>
</svg>
