<svg width="359" height="110" viewBox="0 0 359 110" fill="none" xmlns="http://www.w3.org/2000/svg">
<path d="M140.83 19.09V90H131.097V19.09H140.83ZM179.136 19.09L152.509 51.5L181.152 90H169.195L141.386 52.13L168.152 19.09H179.136Z" fill="#FDFFFC"/>
<path d="M200.201 20.6299C201.453 21.8899 202.009 23.4299 202.009 25.2499C202.009 27.0699 201.383 28.6099 200.201 29.7999C198.95 30.9899 197.351 31.6199 195.404 31.6199C193.527 31.6199 191.928 30.9899 190.677 29.7999C189.425 28.6099 188.869 27.0699 188.869 25.2499C188.869 23.4299 189.495 21.8199 190.677 20.6299C191.928 19.3699 193.458 18.8099 195.404 18.8099C197.351 18.8099 198.95 19.4399 200.201 20.6299ZM200.201 39.1799V89.9999H190.816V39.1799H200.201Z" fill="#FDFFFC"/>
<path d="M257.487 42.1199C261.659 47.2299 263.744 54.0899 263.744 62.7699C263.744 68.3699 262.771 73.3399 260.894 77.6099C259.017 81.8799 256.236 85.2399 252.621 87.6199C249.006 89.9999 244.695 91.1899 239.759 91.1899C232.182 91.1899 226.272 88.6699 222.101 83.5599C217.86 78.4499 215.774 71.5899 215.774 62.9099C215.774 57.3099 216.748 52.3399 218.625 48.0699C220.502 43.7999 223.283 40.4399 226.898 38.0599C230.513 35.6799 234.823 34.4899 239.898 34.4899C247.407 34.4899 253.316 37.0099 257.487 42.1199ZM225.855 62.9099C225.855 76.6999 230.513 83.5599 239.759 83.5599C249.006 83.5599 253.664 76.6299 253.664 62.7699C253.664 48.9799 249.075 42.1199 239.898 42.1199C230.513 42.1199 225.855 49.0499 225.855 62.9099Z" fill="#FDFFFC"/>
<path d="M308.029 35.1199L306.291 44.3599C304.622 43.9399 303.093 43.7299 301.563 43.7299C298.226 43.7299 295.515 44.9899 293.499 47.4399C291.483 49.8899 289.884 53.7399 288.702 58.9899V89.9299H279.316V35.7499H287.381L288.285 46.7399C289.745 42.6799 291.691 39.6699 294.125 37.5699C296.558 35.5399 299.408 34.4899 302.676 34.4899C304.622 34.4899 306.36 34.6999 308.029 35.1199Z" fill="#FDFFFC"/>
<path d="M358.78 89.9299H350.716L350.02 81.4599C348.004 84.8199 345.641 87.2699 342.999 88.8099C340.357 90.3499 337.089 91.1199 333.266 91.1199C328.538 91.1199 324.854 89.6499 322.212 86.7799C319.57 83.9099 318.249 79.8499 318.249 74.5299V35.7499H327.634V73.6199C327.634 77.3299 328.26 79.9199 329.581 81.4599C330.902 82.9999 332.988 83.7699 335.908 83.7699C341.122 83.7699 345.641 80.6199 349.395 74.3899V35.7499H358.78V89.9299Z" fill="#FDFFFC"/>
<path d="M54.8961 109.476C84.777 109.476 109 85.0864 109 55C109 24.9135 84.777 0.52356 54.8961 0.52356C25.0152 0.52356 0.791992 24.9135 0.791992 55C0.791992 85.0864 25.0152 109.476 54.8961 109.476Z" stroke="#FDFFFC" stroke-miterlimit="10"/>
<g opacity="0.4">
<g opacity="0.4">
<path d="M74.124 56.9276C74.2072 40.5847 80.9495 34.2152 81.6153 32.0361C82.9471 27.7618 79.5344 25.1637 76.5379 25.1637H33.1714C30.1748 25.1637 27.6777 27.5942 27.6777 30.6113V83.1601C27.6777 86.1773 30.0916 88.6916 33.1714 88.6916H76.6211C79.6177 88.6916 82.1148 85.9258 82.1148 83.1601C82.0315 79.6401 74.0408 74.3601 74.124 56.9276ZM46.2396 80.0592C46.2396 81.0649 45.4072 81.903 44.4084 81.903H40.4962C39.4974 81.903 38.665 81.0649 38.665 80.0592V40.4171C38.665 39.4114 39.4974 38.5733 40.4962 38.5733H44.4084C45.4072 38.5733 46.2396 39.4114 46.2396 40.4171V80.0592ZM73.6246 81.903H68.1309C68.1309 81.903 66.5494 82.4058 65.3009 80.2268C65.3009 80.2268 49.1529 58.2686 48.9864 58.101L48.9032 58.0172C47.9043 56.5086 48.8199 55.1676 49.4026 54.4133L67.7148 30.4437C68.2974 29.6894 69.4627 29.5218 70.2951 30.1923L70.4616 30.2761C71.2107 30.8628 71.3772 32.0361 70.7113 32.8742L55.7286 52.4857C55.7286 52.5695 54.9795 53.24 54.9795 54.2457C54.9795 54.7486 55.146 55.2514 55.7286 55.8381L73.7078 79.7239C73.6246 79.5563 75.0396 81.5677 73.6246 81.903Z" fill="black" style="mix-blend-mode:multiply"/>
</g>
</g>
<path d="M75.7883 54.3294C75.8716 36.5617 83.1964 29.6893 83.9456 27.3426C85.3606 22.6493 81.6982 19.8835 78.4519 19.8835H31.2565C28.0103 19.8835 25.3467 22.5655 25.3467 25.834V82.9086C25.3467 86.1771 28.0103 88.859 31.2565 88.859H78.3687C81.6149 88.859 84.2785 85.8419 84.2785 82.9086C84.3618 78.9695 75.7051 73.1866 75.7883 54.3294ZM45.4901 79.4723C45.4901 80.5619 44.5744 81.4838 43.4924 81.4838H39.2473C38.1652 81.4838 37.2496 80.5619 37.2496 79.4723V36.3941C37.2496 35.3046 38.082 34.3827 39.2473 34.3827H43.4924C44.5744 34.3827 45.4901 35.3046 45.4901 36.3941V79.4723ZM75.2057 81.4C75.2057 81.4 68.63 81.4 68.3802 81.4C67.6311 81.4 66.882 80.8971 66.1328 79.5562C66.1328 79.5562 48.5698 55.6703 48.4034 55.5865L48.2369 55.5027C47.1548 53.8265 48.0704 52.4018 48.8195 51.5637L68.7132 25.4988C69.3791 24.6607 70.6276 24.4931 71.46 25.2474L71.6265 25.3312C72.4589 26.0017 72.6253 27.2588 71.9594 28.0969L55.645 49.3846C55.645 49.4684 54.8958 50.2227 54.8958 51.2284C54.8958 51.7313 55.0623 52.4018 55.645 52.9884L75.2057 78.8857C75.2057 78.8857 76.7872 81.0647 75.2057 81.4Z" fill="#FDFFFC"/>
</svg>
