<svg version="1.1" id="Capa_1" xmlns="http://www.w3.org/2000/svg" xmlns:xlink="http://www.w3.org/1999/xlink" x="0px" y="0px"
	 viewBox="0 0 54.888 54.888" style="enable-background:new 0 0 54.888 54.888;" xml:space="preserve">
	<path id="start" style="fill:#EA6248;" d="M52.104,0.249c-0.216-0.189-0.501-0.275-0.789-0.241l-31,4.011c-0.499,0.065-0.872,0.489-0.872,0.992
	v6.017v4.212v26.035C17.706,39.285,14.997,38,11.944,38c-5.247,0-9.5,3.781-9.5,8.444s4.253,8.444,9.5,8.444s9.5-3.781,9.5-8.444
	c0-0.332-0.027-0.658-0.069-0.981c0.04-0.108,0.069-0.221,0.069-0.343V16.118l29-3.753v18.909C48.706,29.285,45.997,28,42.944,28
	c-5.247,0-9.5,3.781-9.5,8.444s4.253,8.444,9.5,8.444s9.5-3.781,9.5-8.444c0-0.092-0.012-0.181-0.015-0.272
	c0.002-0.027,0.015-0.05,0.015-0.077V11.227V7.016V1C52.444,0.712,52.32,0.438,52.104,0.249z"/>
	<path id="end" style="fill:#D75A4A;" d="M24.85,10.126c2.018-4.783,6.628-8.125,11.99-8.125c7.223,0,12.425,6.179,13.079,13.543
	c0,0,0.353,1.828-0.424,5.119c-1.058,4.482-3.545,8.464-6.898,11.503L24.85,48L7.402,32.165c-3.353-3.038-5.84-7.021-6.898-11.503
	c-0.777-3.291-0.424-5.119-0.424-5.119C0.734,8.179,5.936,2,13.159,2C18.522,2,22.832,5.343,24.85,10.126z"/>
</svg>
