<svg width="22" height="19" viewBox="0 0 22 19" fill="none" xmlns="http://www.w3.org/2000/svg">
<path d="M22 1C21.0424 1.67548 19.9821 2.19211 18.86 2.53C18.2577 1.83751 17.4573 1.34669 16.567 1.12393C15.6767 0.901161 14.7395 0.957196 13.8821 1.28445C13.0247 1.61171 12.2884 2.1944 11.773 2.95372C11.2575 3.71303 10.9877 4.61234 11 5.53V6.53C9.24263 6.57557 7.50127 6.18581 5.93101 5.39545C4.36074 4.60508 3.01032 3.43864 2 2C2 2 -2 11 7 15C4.94053 16.398 2.48716 17.0989 0 17C9 22 20 17 20 5.5C19.9991 5.22145 19.9723 4.94359 19.92 4.67C20.9406 3.66349 21.6608 2.39271 22 1Z" fill="#DCDCDC"/>
</svg>
