<svg width="261" height="58" viewBox="0 0 261 58" fill="none" xmlns="http://www.w3.org/2000/svg">
<path d="M13.3183 36.4489C11.8821 36.5794 11.6993 36.7098 11.6993 38.4318V45.5546C11.6993 47.9289 11.412 49.6509 9.79292 51.0337C9.03561 51.686 8.2783 52.0512 7.59933 52.2339L7.31207 51.5555C8.38275 51.0598 8.98338 50.3032 9.16618 49.103C9.34898 48.0593 9.37509 46.8331 9.37509 45.2937V38.4579C9.37509 36.7359 9.1923 36.6054 7.62544 36.475V35.7966H13.3183V36.4489Z" fill="#0E1B34"/>
<path d="M25.2525 45.7373C25.1219 46.5461 24.7302 48.3985 24.5474 48.9725H14.5195V48.3203C16.217 48.1898 16.3998 48.0333 16.3998 46.3373V38.4579C16.3998 36.7098 16.217 36.6315 14.7807 36.5272V35.7966H24.1557C24.1818 36.188 24.2862 37.5708 24.3646 38.7188L23.6856 38.8232C23.5028 38.0665 23.2678 37.4925 22.9283 37.1273C22.6149 36.762 22.0665 36.6054 20.7869 36.6054H19.6118C18.9067 36.6054 18.8284 36.6576 18.8284 37.2838V41.7193H20.3952C22.1188 41.7193 22.3277 41.5888 22.5888 40.2321H23.2678V44.2762H22.6149C22.3538 42.8673 22.171 42.789 20.4997 42.789H18.8284V46.3373C18.8284 47.3027 18.9328 47.7463 19.2984 47.9811C19.664 48.1898 20.343 48.1898 21.1787 48.1898C22.406 48.1898 23.0589 48.0593 23.5028 47.5375C23.8945 47.1201 24.234 46.4678 24.5735 45.6329L25.2525 45.7373Z" fill="#0E1B34"/>
<path d="M40.268 36.5794C39.1973 36.6315 38.7795 36.9185 38.6751 37.8317C38.5967 38.4318 38.5184 39.3972 38.5184 41.2235V49.1291H37.6827L29.1956 38.8754H29.065V43.65C29.065 45.4503 29.1434 46.3634 29.1956 46.9635C29.3001 47.9289 29.6657 48.242 31.0758 48.3203V48.9725H26.2186V48.3203C27.3676 48.242 27.8377 47.9289 27.9421 47.0157C27.9944 46.3373 28.0988 45.4242 28.0988 43.6239V39.4233C28.0988 38.0405 28.0727 37.7535 27.681 37.3099C27.2632 36.8142 26.8453 36.6315 25.9313 36.5533V35.901H29.4306L37.4738 45.1893H37.526V41.1714C37.526 39.345 37.4216 38.4057 37.3955 37.8317C37.2649 36.9707 36.8471 36.6315 35.3847 36.5533V35.901H40.2419V36.5794H40.268Z" fill="#0E1B34"/>
<path d="M50.7138 48.9986C49.5909 47.5897 47.9718 45.3719 46.405 43.2325C45.961 42.6324 45.6999 42.5541 45.3865 42.5802V46.3112C45.3865 48.0593 45.5954 48.1898 47.1362 48.3463V48.9986H41.4694V48.3463C42.8795 48.2159 43.0885 48.0593 43.0885 46.3112V38.484C43.0885 36.7098 42.9057 36.5793 41.3388 36.4489V35.7705H47.0056V36.4489C45.5693 36.5793 45.3865 36.7098 45.3865 38.484V41.954C45.8304 41.8236 46.3266 41.5366 46.9011 40.9365C48.2068 39.6841 49.2253 38.5361 49.9826 37.5447C50.531 36.8663 50.5049 36.6054 49.5387 36.501L49.1469 36.4489V35.7705H54.2653V36.475C52.9074 36.6054 52.1762 36.8141 51.0011 37.91C49.9565 38.8753 48.8858 40.0233 47.8412 41.1191C49.1992 43.0499 50.9749 45.2676 52.2545 46.833C53.1946 47.9289 53.6908 48.2158 54.5526 48.3202V48.9464H50.7138V48.9986Z" fill="#0E1B34"/>
<path d="M55.3622 48.9986V48.3463C56.929 48.1898 57.1118 48.0854 57.1118 46.3634V38.4579C57.1118 36.7359 56.929 36.5794 55.3622 36.475V35.7966H61.2901V36.475C59.6971 36.6054 59.5405 36.7359 59.5405 38.4579V46.3634C59.5405 48.0593 59.6971 48.2159 61.2901 48.3463V48.9986H55.3622Z" fill="#0E1B34"/>
<path d="M76.6451 36.5794C75.5744 36.6315 75.1566 36.9185 75.0521 37.8317C74.9738 38.4318 74.8954 39.3972 74.8954 41.2235V49.1291H74.0598L65.5988 38.8754H65.4682V43.65C65.4682 45.4503 65.5465 46.3634 65.6249 46.9635C65.7293 47.9289 66.121 48.242 67.6357 48.3203V48.9725H62.6478V48.3203C63.7969 48.242 64.2669 47.9289 64.3714 47.0157C64.4236 46.3373 64.5281 45.4242 64.5281 43.6239V39.4233C64.5281 38.0405 64.502 37.7535 64.1102 37.3099C63.6924 36.8142 63.2746 36.6315 62.3606 36.5533V35.901H65.8338L73.877 45.1893H73.9292V41.1714C73.9292 39.345 73.8247 38.4057 73.7986 37.8317C73.6681 36.9707 73.2502 36.6315 71.7878 36.5533V35.901H76.6451V36.5794Z" fill="#0E1B34"/>
<path d="M85.1324 39.058C84.7145 37.7795 84.0356 36.3185 82.3643 36.3185C81.0847 36.3185 80.3012 37.2577 80.3012 38.3796C80.3012 39.632 81.1369 40.3104 82.8604 41.1453C84.7929 42.1106 86.4119 43.1804 86.4119 45.2676C86.4119 47.5114 84.5056 49.2856 81.6331 49.2856C80.8757 49.2856 80.1707 49.1552 79.6223 48.9725C79.0739 48.816 78.7083 48.6594 78.4732 48.5551C78.2904 48.0594 78.0293 46.3634 77.8726 45.2415L78.5516 45.0328C78.9172 46.3113 80.014 48.5029 81.9987 48.5029C83.3566 48.5029 84.1922 47.6158 84.1922 46.2591C84.1922 44.9545 83.226 44.224 81.6853 43.4152C79.8834 42.4759 78.2121 41.4062 78.2121 39.345C78.2121 37.2316 79.8834 35.5096 82.6776 35.5096C83.8528 35.5096 84.8973 35.8488 85.4196 36.0054C85.498 36.762 85.6285 37.5969 85.7852 38.8754L85.1324 39.058Z" fill="#0E1B34"/>
<path d="M105.763 43.4674C104.509 43.65 104.405 43.7544 104.405 44.9546V46.7287C104.405 47.4593 104.431 48.1116 104.535 48.6595C103.256 48.9726 101.584 49.4161 99.9132 49.4161C95.3954 49.4161 92.3661 46.5983 92.3661 42.5281C92.3661 37.7535 96.2049 35.4314 100.227 35.4314C101.924 35.4314 103.517 35.8749 104.17 36.0315C104.222 36.762 104.326 37.8839 104.509 39.2407L103.935 39.3711C103.439 36.8664 101.872 36.188 99.9132 36.188C96.7533 36.188 94.4553 38.484 94.4553 42.2933C94.4553 45.2677 96.2049 48.7116 100.174 48.7116C100.879 48.7116 101.506 48.5551 101.976 48.3464C102.394 48.1116 102.629 47.8767 102.629 47.0157V45.2416C102.629 43.7805 102.498 43.65 100.618 43.4935V42.9456H105.763V43.4674Z" fill="#0E1B34"/>
<path d="M116.653 49.1291H116.156C114.537 49.1291 113.884 48.6856 113.284 47.8246C112.84 47.1723 112.265 46.233 111.978 45.7112C111.612 45.1111 111.377 44.9546 110.594 44.9546H110.072V46.8331C110.072 48.2159 110.202 48.3464 111.56 48.4507V48.9987H106.99V48.4507C108.348 48.3464 108.479 48.242 108.479 46.807V41.7454C108.479 41.7454 108.427 40.1799 107.121 40.1017V39.5798H111.612C112.657 39.5277 113.414 39.6581 114.015 40.0234C114.616 40.3887 115.06 41.0409 115.06 41.9802C115.06 43.3108 114.093 44.0675 113.127 44.4327C113.362 44.8502 114.015 45.8938 114.485 46.5461C115.007 47.2767 115.268 47.6158 115.608 47.9811C115.947 48.3464 116.365 48.529 116.731 48.6595L116.653 49.1291ZM110.907 44.2762C111.482 44.2762 111.978 44.1979 112.396 43.937C112.918 43.5978 113.205 42.9456 113.205 42.215C113.205 40.7278 112.213 40.1278 111.012 40.1278C110.15 40.1278 110.072 40.3104 110.072 40.9366V44.2762H110.907ZM123.834 48.9987V48.4507L124.226 48.3986C124.852 48.3203 124.983 48.1637 124.696 47.4332L124.121 45.8938H120.7C120.544 46.3113 120.361 46.7809 120.23 47.3288C119.969 48.1377 120.178 48.3203 120.805 48.3986L121.301 48.4507V48.9987H117.514V48.4507C118.454 48.3464 118.846 48.2159 119.447 46.7027L122.45 39.3972L123.05 39.2407L126.21 47.0679C126.68 48.2681 127.046 48.3986 127.986 48.4507V48.9987H123.834ZM122.372 41.4584H122.319L120.935 45.085H123.703L122.372 41.4584ZM133.992 39.5538C135.716 39.5538 137.204 39.8929 138.223 40.8322C138.954 41.5106 139.476 42.6064 139.476 43.937C139.476 47.4071 136.708 48.9726 133.392 48.9726H129.344V48.4247C130.702 48.3203 130.833 48.1898 130.833 46.7809V41.7976C130.833 40.2843 130.702 40.206 129.475 40.1017V39.5538H133.992ZM132.582 46.7027C132.582 48.0072 132.922 48.3203 134.071 48.3203C136.499 48.3203 137.779 46.7027 137.779 44.224C137.779 41.2497 136.134 40.1799 133.888 40.1799C133.287 40.1799 132.896 40.2843 132.765 40.4408C132.634 40.5713 132.582 40.8322 132.582 41.3801V46.7027ZM151.854 40.1017C150.888 40.1799 150.523 40.3365 150.47 41.067C150.418 41.5367 150.366 42.215 150.366 43.5717V44.6415C150.366 46.0243 150.079 47.3288 149.243 48.1637C148.564 48.8682 147.546 49.2596 146.449 49.2596C145.483 49.2596 144.569 49.0769 143.864 48.529C143.028 47.8767 142.558 46.807 142.558 45.085V41.7715C142.558 40.3365 142.427 40.2321 141.069 40.1278V39.5798H145.639V40.1278C144.386 40.2582 144.281 40.3626 144.281 41.7715V44.6937C144.281 46.9897 145.195 48.242 146.893 48.242C148.695 48.242 149.53 46.8853 149.53 44.5371V43.5978C149.53 42.1889 149.478 41.5628 149.426 41.0931C149.347 40.3887 148.982 40.206 147.781 40.1278V39.5798H151.828V40.1017H151.854ZM157.913 48.9987V48.4507L158.305 48.3986C158.931 48.3203 159.062 48.1637 158.775 47.4332L158.2 45.8938H154.779C154.623 46.3113 154.44 46.7809 154.309 47.3288C154.048 48.1377 154.257 48.3203 154.884 48.3986L155.38 48.4507V48.9987H151.724V48.4507C152.664 48.3464 153.056 48.2159 153.656 46.7027L156.659 39.3972L157.286 39.2407L160.446 47.0679C160.916 48.2681 161.282 48.3986 162.222 48.4507V48.9987H157.913ZM156.529 41.4584H156.477L155.093 45.085H157.861L156.529 41.4584ZM170.552 42.1368C170.369 41.3279 170.213 40.8844 170.03 40.6235C169.769 40.2843 169.325 40.1799 168.411 40.1017H167.497V46.7287C167.523 48.2159 169.116 48.4247 169.116 48.4247V48.9726H164.259V48.5812C165.747 48.4768 165.878 48.3725 165.878 46.8592V40.0756H165.225C163.893 40.0756 163.58 40.2321 163.319 40.5974C163.11 40.9105 162.953 41.3018 162.796 42.0846H162.3C162.352 40.9105 162.457 39.8408 162.483 39.1102H162.901C162.901 39.1102 163.319 39.5016 163.71 39.5016H169.795C170.213 39.4494 170.552 39.1102 170.552 39.1102H170.97C170.97 39.1102 171.048 41.1714 171.153 42.0585L170.552 42.1368ZM181.128 46.4417C181.024 47.0679 180.711 48.5812 180.58 48.9987H172.615V48.4507C173.999 48.3203 174.104 48.2159 174.104 46.7548V41.7454C174.104 40.3104 173.999 40.2321 172.746 40.1538V39.5798H180.188C180.214 39.9973 180.267 40.9888 180.345 41.928L179.797 41.9802C179.614 41.354 179.457 40.9888 179.248 40.7278C178.987 40.3887 178.648 40.2582 177.525 40.2582H176.428C175.879 40.2582 175.853 40.2843 175.853 40.8322V43.7544H177.368C178.621 43.7544 178.726 43.65 178.909 42.6847H179.483V45.659H178.909C178.726 44.5893 178.621 44.4588 177.368 44.4588H175.853V46.8331C175.853 47.6158 175.958 48.0072 176.219 48.1637C176.48 48.3203 176.976 48.3725 177.812 48.3725C178.857 48.3725 179.405 48.242 179.771 47.8507C180.032 47.5637 180.293 47.1201 180.554 46.3896L181.128 46.4417ZM194.159 38.7971C193.82 37.5187 193.272 36.1098 191.496 36.1098C189.929 36.1098 189.224 37.2317 189.224 38.3275C189.224 39.8147 190.216 40.5452 191.835 41.354C193.454 42.1889 195.361 43.1282 195.361 45.4503C195.361 47.5897 193.533 49.3117 190.817 49.3117C189.981 49.3117 189.302 49.1552 188.806 48.9987C188.284 48.8421 187.996 48.6595 187.788 48.5812C187.657 48.1637 187.37 46.3896 187.239 45.4242L187.84 45.2677C188.153 46.52 189.067 48.5812 191.182 48.5812C192.749 48.5812 193.637 47.6158 193.637 46.1287C193.637 44.6154 192.514 43.9109 190.974 43.076C189.668 42.3455 187.605 41.354 187.605 39.058C187.605 37.1012 189.172 35.4314 191.809 35.4314C192.749 35.4314 193.611 35.6662 194.394 35.901C194.473 36.6055 194.577 37.4404 194.734 38.7188L194.159 38.7971ZM206.616 46.2852C206.459 46.9897 206.068 48.3203 205.78 48.8682C205.362 48.9726 203.848 49.2856 202.829 49.2856C199.095 49.2856 197.345 46.9114 197.345 44.3806C197.345 41.3018 199.878 39.2668 203.143 39.2668C204.422 39.2668 205.493 39.5538 206.015 39.6842C206.146 40.493 206.172 41.2497 206.303 42.1889L205.702 42.2933C205.284 40.5191 204.266 39.8929 202.777 39.8929C200.714 39.8929 199.226 41.641 199.226 44.0936C199.226 46.7548 200.871 48.5812 202.855 48.5812C204.318 48.5812 205.258 47.7724 206.015 46.1287L206.616 46.2852ZM214.659 48.9987V48.4507C216.017 48.3203 216.148 48.2159 216.148 46.7809V44.4327H211.29V46.7809C211.29 48.2681 211.421 48.3725 212.648 48.4507V48.9987H208.209V48.4507C209.567 48.3464 209.697 48.242 209.697 46.7548V41.8497C209.697 40.3365 209.567 40.2582 208.209 40.1278V39.5798H212.648V40.1278C211.421 40.2582 211.29 40.3104 211.29 41.8237V43.6239H216.148V41.8237C216.148 40.3365 216.017 40.2321 214.79 40.1278V39.5798H219.229V40.1017C217.871 40.2321 217.741 40.3365 217.741 41.7976V46.7548C217.741 48.2159 217.871 48.3203 219.229 48.4507V48.9987H214.659ZM231.111 44.1718C231.111 47.5637 228.526 49.2856 226.045 49.2856C222.781 49.2856 220.9 46.8853 220.9 44.4588C220.9 40.8322 223.773 39.2668 226.045 39.2668C229.048 39.2668 231.111 41.3801 231.111 44.1718ZM222.833 43.9631C222.833 46.7027 224.243 48.6334 226.254 48.6334C227.821 48.6334 229.205 47.5115 229.205 44.5632C229.205 42.2411 227.977 39.8929 225.862 39.8929C224.295 39.919 222.833 41.2758 222.833 43.9631ZM243.463 44.1718C243.463 47.5637 240.878 49.2856 238.397 49.2856C235.133 49.2856 233.252 46.8853 233.252 44.4588C233.252 40.8322 236.125 39.2668 238.397 39.2668C241.374 39.2668 243.463 41.3801 243.463 44.1718ZM235.159 43.9631C235.159 46.7027 236.569 48.6334 238.58 48.6334C240.147 48.6334 241.531 47.5115 241.531 44.5632C241.531 42.2411 240.303 39.8929 238.188 39.8929C236.621 39.919 235.159 41.2758 235.159 43.9631ZM253.125 46.3374C252.995 46.9375 252.707 48.529 252.577 48.9726H244.978V48.4247C246.362 48.3203 246.466 48.2159 246.466 46.7548V41.7454C246.466 40.2843 246.362 40.206 245.108 40.1017V39.5538H249.678V40.1017C248.32 40.206 248.19 40.2582 248.19 41.7193V46.9636C248.19 47.668 248.294 48.0333 248.555 48.1898C248.869 48.3203 249.339 48.3464 250.018 48.3464C250.932 48.3203 251.454 48.2159 251.793 47.8246C252.081 47.4854 252.264 47.0418 252.525 46.2852L253.125 46.3374Z" fill="#0E1B34"/>
<path d="M112.396 28.6478C110.672 28.6478 109.471 27.3694 109.471 25.6735C109.471 23.8732 110.829 22.6991 112.396 22.6991C113.962 22.6991 115.32 23.8732 115.32 25.6735C115.294 27.4476 113.936 28.6478 112.396 28.6478ZM112.396 23.1948C111.116 23.1948 110.098 24.2124 110.098 25.6474C110.098 27.0041 110.985 28.0999 112.396 28.0999C113.675 28.0999 114.668 27.1085 114.668 25.6474C114.668 24.2124 113.649 23.1948 112.396 23.1948ZM111.821 27.3172H111.273V24.0819H112.5C113.283 24.0819 113.675 24.3428 113.675 25.0212C113.675 25.5952 113.31 25.8561 112.84 25.9083L113.754 27.3172H113.127L112.317 25.9605H111.821V27.3172ZM112.422 25.4125C112.813 25.4125 113.179 25.3865 113.179 24.9168C113.179 24.5255 112.787 24.4733 112.474 24.4733H111.821V25.4125H112.422Z" fill="#0E1B34"/>
<path d="M17.5228 27.6829C24.2603 27.6829 27.3418 24.2128 27.3418 18.3424V5.7666H20.5782V18.3163C20.5782 21.2907 19.8731 22.7518 17.5489 22.7518C15.1725 22.7518 14.5197 21.2907 14.5197 18.3163V5.7666H7.78223V18.6816C7.78223 24.7086 10.707 27.6829 17.4445 27.6829" fill="#0E1B34"/>
<path d="M78.0557 23.7949H84.0619L84.9237 27.291H91.844L86.7778 5.73999H75.8621L70.3259 27.291H77.1678L78.0557 23.7949ZM80.641 10.8799H81.8161L83.4091 19.0985H78.813L80.641 10.8799Z" fill="#0E1B34"/>
<path d="M62.0996 5.76611H55.3622V27.3172H67.4269L68.6282 22.5947H62.0996V5.76611Z" fill="#0E1B34"/>
<path d="M101.689 21.3945H103.883C109.471 21.3945 112.396 17.7157 112.396 13.0976C112.396 8.68829 111.221 5.76611 104.405 5.76611H95.1343V27.3172H101.741L101.689 21.3945ZM101.715 10.4886H103.935C105.998 10.4886 106.337 11.4539 106.337 13.5412C106.337 15.8111 105.371 16.8286 103.935 16.8286H101.715V10.4886Z" fill="#0E1B34"/>
<path d="M51.9154 15.6285C51.9154 7.20111 48.7555 5.76611 40.5818 5.76611H31.7813V27.3172H39.6678C47.2931 27.3172 51.9154 23.5079 51.9154 15.6285ZM38.2576 10.619H41.3391C44.1856 10.619 45.2562 12.1062 45.2562 16.2546C45.2562 19.8552 44.2378 22.7513 40.1379 22.7513H38.2837V10.619H38.2576Z" fill="#0E1B34"/>
</svg>

